<svg width="56" height="56" viewBox="0 0 56 56" fill="none" xmlns="http://www.w3.org/2000/svg">
<g clip-path="url(#clip0_1_56)">
<path d="M1.81997 32.2727H6.33455C8.98152 32.2727 11.4856 33.3955 13.2998 35.3223C14.134 36.2085 15.0851 37.0268 16.1402 37.7485C16.3509 37.8928 16.5732 38.0039 16.7882 38.1382L20.7269 40.8991L25.6586 44.3702L26.0396 44.7758C27.4064 46.2335 28.3922 48.0131 28.9146 49.9572L30.0491 54.1975C30.267 55.0288 31.0146 55.5932 31.8546 55.5758C37.238 55.1761 38.1401 45.6894 33.9647 36.0743C33.9127 35.9545 33.8362 35.7625 33.9012 35.5576C33.9849 35.2978 34.3933 35.1636 35.1424 35.0972C35.8077 35.038 45.8804 34.1403 48.0568 34.1403C49.2966 34.1403 44.5944 7.45982 44.5944 5.32377C44.5944 2.93226 42.519 0.579709 40.1275 0.579709C40.1231 0.579709 19.8898 0.114976 16.0175 1.65784C14.6623 2.19763 13.4629 3.14153 12.4699 4.30915C10.6413 6.45819 7.99288 7.73838 5.17127 7.73838H1.81997C0.814009 7.73838 0 13.2315 0 20.0062C0 26.781 0.814009 32.2727 1.81997 32.2727Z" fill="url(#paint0_radial_1_56)"/>
<g opacity="0.87">
<path opacity="0.091" d="M27.7672 28.9164C27.5839 27.8527 27.7441 26.8425 28.1554 25.9736C28.7024 24.8161 28.6361 23.4406 27.7542 22.5126C26.9258 21.6423 26.4148 20.4689 26.412 19.17C26.412 19.1238 26.412 19.0776 26.4134 19.0314C26.4307 18.3401 26.5924 17.6848 26.868 17.0917C27.379 15.9933 27.2289 14.6828 26.4351 13.7663C26.2994 13.6105 26.1753 13.4445 26.0598 13.2699C25.5561 12.4991 25.2646 11.5682 25.2689 10.5781C25.2703 10.1625 25.3252 9.7598 25.4276 9.37733C25.5027 9.09878 25.6023 8.82744 25.725 8.5691C25.9299 8.13611 26.0281 7.68726 26.0165 7.26871C26.0078 6.95696 25.9429 6.61779 25.761 6.30026C25.6615 6.12707 25.5547 5.95243 25.432 5.7879C24.9615 5.15719 24.7233 4.36194 24.8229 3.47866C25.0091 1.83621 26.7107 0.554573 28.3633 0.514161C28.3676 0.514161 28.4441 0.514161 28.4484 0.514161H33.2416C35.5912 0.514161 37.2135 1.82899 37.3448 3.61866C37.4213 4.6506 37.0287 5.59306 36.3605 6.25553C37.9409 7.07098 39.032 8.69899 39.032 10.5998C39.032 12.2105 38.2497 13.6307 37.0504 14.5255C37.0186 14.5544 37.0287 14.6063 37.0735 14.6237C38.8675 15.3525 40.1375 17.1003 40.1375 19.1555C40.1375 20.8832 39.2369 22.3885 37.886 23.2617C37.8485 23.2891 37.8615 23.3468 37.912 23.3613C40.1549 24.0324 41.7324 26.242 41.3629 28.7793C41.0078 31.217 42.4223 34.2566 39.9586 34.2566L34.1162 34.5236C33.9084 34.5366 33.6991 34.5366 33.4941 34.5048C30.3478 34.0343 28.1641 31.2098 27.7672 28.9164Z" fill="#E0C29C"/>
<path opacity="0.182" d="M28.5956 28.9157C28.4123 27.852 28.5725 26.8417 28.9839 25.9729C29.5309 24.8154 29.4645 23.4399 28.5827 22.5119C27.7571 21.6445 27.2462 20.4754 27.2404 19.1808C27.2404 19.1346 27.2404 19.0899 27.2418 19.0437C27.2577 18.3553 27.415 17.7 27.6864 17.1068C28.1915 15.9998 28.0342 14.6879 27.2303 13.7743C27.0932 13.6184 26.9662 13.4524 26.8493 13.2735C26.3412 12.497 26.0511 11.5502 26.0612 10.5558C26.0656 10.1372 26.1233 9.73166 26.2301 9.34919C26.308 9.07064 26.4148 8.79497 26.5433 8.53374C26.7583 8.09643 26.8882 7.6519 26.9056 7.25788C26.9185 6.96923 26.8825 6.62139 26.6602 6.30243C26.5447 6.1379 26.4322 5.96759 26.3037 5.80739C25.8087 5.19111 25.5561 4.40741 25.6499 3.50825C25.8231 1.85569 27.5175 0.559625 29.1787 0.516327C29.1874 0.516327 29.261 0.516327 29.2697 0.516327H34.07C36.4197 0.516327 38.0419 1.83116 38.1732 3.62082C38.2497 4.65277 37.8572 5.59523 37.1889 6.25769C38.7693 7.07314 39.8604 8.70116 39.8604 10.602C39.8604 12.2155 39.0738 13.6401 37.8716 14.5335C37.8471 14.5609 37.86 14.6085 37.9048 14.6273C39.6973 15.3576 40.966 17.1039 40.966 19.1592C40.966 20.8911 40.0596 22.4008 38.7044 23.2725C38.6755 23.2985 38.6914 23.3519 38.7419 23.3663C40.9847 24.0374 42.5622 26.2471 42.1913 28.7829C41.8363 31.2206 43.2464 34.2501 40.7827 34.2501L34.7094 34.354C34.5073 34.3641 34.3038 34.3627 34.1061 34.3323C30.9814 33.8662 28.9911 31.2062 28.5956 28.9157Z" fill="#DEBC96"/>
<path opacity="0.273" d="M29.4227 28.9157C29.2394 27.852 29.3996 26.8417 29.8109 25.9729C30.3579 24.8154 30.2915 23.4399 29.4097 22.5119C28.5856 21.6474 28.0775 20.4812 28.0674 19.1923C28.0674 19.1462 28.0674 19.1014 28.0689 19.0567C28.0833 18.3711 28.2363 17.7159 28.5033 17.1227C29.0041 16.007 28.8396 14.6951 28.0241 13.7829C27.8856 13.6271 27.7557 13.4596 27.6373 13.2792C27.1264 12.497 26.8377 11.5343 26.8507 10.5356C26.8565 10.1156 26.9171 9.70712 27.0297 9.32177C27.112 9.04177 27.2245 8.76322 27.3588 8.4991C27.5839 8.05746 27.7456 7.61725 27.7932 7.24778C27.8278 6.98221 27.8235 6.62428 27.5579 6.30387C27.4295 6.148 27.3083 5.98346 27.174 5.82615C26.6545 5.2243 26.3874 4.45215 26.474 3.53711C26.6342 1.87445 28.3214 0.563951 29.9899 0.516322C30.0029 0.516322 30.0736 0.51488 30.088 0.51488H34.897C37.2467 0.51488 38.8689 1.82971 39.0003 3.61937C39.0768 4.65132 38.6842 5.59378 38.0159 6.25624C39.5963 7.0717 40.6875 8.69971 40.6875 10.6005C40.6875 12.2184 39.898 13.6444 38.69 14.5378C38.6726 14.5638 38.6885 14.6085 38.7333 14.6258C40.5244 15.3561 41.793 17.1025 41.793 19.1563C41.793 20.8925 40.8823 22.4051 39.5213 23.2754C39.4996 23.2999 39.5198 23.3475 39.5689 23.3634C41.8103 24.0345 43.3878 26.2442 43.0184 28.78C42.6633 31.2177 44.0676 34.2385 41.6039 34.2385L35.3011 34.1794C35.1048 34.1866 34.9086 34.1837 34.7166 34.1548C31.615 33.6987 29.8181 31.2033 29.4227 28.9157Z" fill="#DBB791"/>
<path opacity="0.364" d="M30.251 28.9159C30.0677 27.8522 30.2279 26.8419 30.6392 25.973C31.1863 24.8155 31.1199 23.4401 30.238 22.512C29.4168 21.649 28.9088 20.4886 28.8958 19.204C28.8958 19.1593 28.8958 19.1131 28.8958 19.0684C28.9088 18.3857 29.0589 17.7319 29.3201 17.1373C29.8151 16.013 29.6434 14.6996 28.8178 13.7903C28.6764 13.6344 28.5451 13.4656 28.4253 13.2823C27.9115 12.4943 27.6228 11.5157 27.6416 10.5126C27.6502 10.0897 27.7137 9.67841 27.8306 9.29306C27.9158 9.01162 28.0356 8.72874 28.1756 8.46173C28.4108 8.01576 28.6028 7.57988 28.6807 7.23494C28.7356 6.99247 28.7644 6.62588 28.4556 6.30258C28.3141 6.15537 28.1842 5.99516 28.0428 5.84218C27.4987 5.25332 27.2172 4.4956 27.2981 3.5618C27.4453 1.88904 29.1238 0.565555 30.8023 0.513597C30.8197 0.513597 30.8889 0.512155 30.9063 0.512155H35.7225C38.0721 0.512155 39.6944 1.82698 39.8257 3.61664C39.9022 4.64859 39.5096 5.59105 38.8414 6.25352C40.4218 7.06897 41.5129 8.69698 41.5129 10.5978C41.5129 12.2186 40.7205 13.6474 39.5082 14.5408C39.4981 14.5654 39.5169 14.6058 39.5602 14.6245C41.3513 15.3548 42.6185 17.1012 42.6185 19.155C42.6185 20.8956 41.7034 22.411 40.3366 23.2813C40.3236 23.3044 40.3453 23.3477 40.3958 23.3636C42.6372 24.0347 44.2147 26.2444 43.8452 28.7802C43.4902 31.2179 44.8887 34.2286 42.4251 34.2286L35.8913 34.0049C35.7008 34.0106 35.5103 34.0049 35.3256 33.9774C32.2485 33.5329 30.6465 31.2006 30.251 28.9159Z" fill="#D8B28B"/>
<path opacity="0.455" d="M31.078 28.9162C30.8947 27.8525 31.0549 26.8422 31.4663 25.9733C32.0133 24.8158 31.9469 23.4404 31.065 22.5124C30.2467 21.6522 29.7387 20.4961 29.7242 19.2174C29.7242 19.1726 29.7242 19.1279 29.7242 19.0831C29.7343 18.4033 29.8816 17.7495 30.1385 17.1549C30.6277 16.0205 30.4502 14.7086 29.6131 13.8007C29.4702 13.6463 29.3374 13.476 29.2148 13.2884C28.6981 12.4946 28.4094 11.4987 28.4339 10.4927C28.4441 10.067 28.5104 9.65275 28.6331 9.26595C28.7226 8.98307 28.8467 8.6973 28.9939 8.4274C29.2393 7.9771 29.4616 7.547 29.5698 7.22515C29.6434 7.00722 29.7098 6.62764 29.3548 6.30579C29.2018 6.16579 29.0618 6.01136 28.9146 5.86414C28.3459 5.28828 28.05 4.54354 28.1236 3.59386C28.2579 1.911 29.9292 0.573082 31.6164 0.518237C31.6395 0.516794 31.7044 0.516795 31.7261 0.516795H36.5509C38.9006 0.516795 40.5229 1.83162 40.6542 3.62129C40.7307 4.65323 40.3381 5.59569 39.6699 6.25816C41.2503 7.07361 42.3414 8.70163 42.3414 10.6024C42.3414 12.2276 41.5447 13.6593 40.328 14.5512C40.3251 14.5743 40.3468 14.6119 40.3901 14.6292C42.1797 15.3609 43.4469 17.1058 43.4469 19.1582C43.4469 20.9031 42.5276 22.4214 41.155 23.2903C41.1507 23.3119 41.1752 23.3509 41.2243 23.3653C43.4657 24.0365 45.0418 26.2461 44.6723 28.782C44.3172 31.2197 45.7114 34.2217 43.2478 34.2217L36.4831 33.8349C36.2984 33.8378 36.1136 33.8306 35.9361 33.8046C32.8836 33.3658 31.4735 31.1995 31.078 28.9162Z" fill="#D6AD86"/>
<path opacity="0.545" d="M31.9065 28.9164C31.7232 27.8527 31.8834 26.8424 32.2947 25.9735C32.8417 24.816 32.7753 23.4406 31.8935 22.5126C31.0766 21.6553 30.57 20.5035 30.5527 19.2291C30.5527 19.1844 30.5527 19.1396 30.5527 19.0949C30.5614 18.418 30.7042 17.7642 30.9568 17.1695C31.4403 16.0265 31.257 14.7131 30.4084 13.8081C30.2626 13.6537 30.1284 13.482 30.0043 13.2929C29.4847 12.4933 29.1975 11.4816 29.2263 10.4713C29.2393 10.0426 29.3086 9.62697 29.4356 9.23872C29.5294 8.95584 29.6593 8.66575 29.8123 8.39297C30.0678 7.93833 30.3174 7.51401 30.4603 7.21525C30.5527 7.02041 30.6566 6.62784 30.2554 6.30743C30.0908 6.17465 29.9407 6.02599 29.7878 5.88311C29.1931 5.32167 28.8843 4.58848 28.9521 3.62293C29.0733 1.92996 30.7374 0.577611 32.4318 0.518436C32.4593 0.516993 32.5213 0.516994 32.5488 0.516994H37.3808C39.7305 0.516994 41.3528 1.83182 41.4841 3.62149C41.5606 4.65343 41.168 5.59589 40.4998 6.25836C42.0802 7.07381 43.1713 8.70182 43.1713 10.6026C43.1713 12.2306 42.3717 13.6653 41.1507 14.5572C41.155 14.5789 41.1796 14.6135 41.2229 14.6308C43.0111 15.3626 44.2783 17.1075 44.2783 19.1598C44.2783 20.9091 43.3546 22.4303 41.9762 23.2991C41.9806 23.3194 42.008 23.354 42.0556 23.3684C44.297 24.0395 45.8731 26.2492 45.5036 28.785C45.1486 31.2227 46.537 34.2147 44.0733 34.2147L37.0792 33.6633C36.9002 33.6633 36.7227 33.6547 36.551 33.6301C33.5172 33.1986 32.3005 31.1968 31.9065 28.9164Z" fill="#D3A780"/>
<path opacity="0.636" d="M32.7349 28.9164C32.5516 27.8527 32.7118 26.8424 33.1232 25.9735C33.6702 24.816 33.6038 23.4406 32.7219 22.5125C31.9079 21.6581 31.4013 20.5107 31.3811 19.2406C31.3811 19.1959 31.3797 19.1526 31.3811 19.1079C31.3883 18.4353 31.5269 17.7815 31.7751 17.1854C32.2529 16.0337 32.0623 14.7188 31.2036 13.8154C31.0564 13.6609 30.9193 13.4877 30.7937 13.2958C30.2712 12.4904 29.984 11.4628 30.0172 10.4496C30.0317 10.0181 30.1038 9.59954 30.2366 9.2113C30.3333 8.92697 30.4704 8.63254 30.6292 8.35831C30.8947 7.89935 31.1718 7.47936 31.3479 7.20513C31.4576 7.03338 31.6019 6.62782 31.1545 6.30886C30.9784 6.18329 30.8168 6.04185 30.6595 5.90185C30.0403 5.35485 29.717 4.63466 29.7776 3.65178C29.8859 1.94872 31.5413 0.581927 33.2458 0.519867C33.2776 0.518423 33.3368 0.518424 33.3685 0.518424H38.2093C40.5589 0.518424 42.1812 1.83325 42.3125 3.62292C42.389 4.65486 41.9964 5.59732 41.3282 6.25979C42.9086 7.07524 43.9997 8.70326 43.9997 10.6041C43.9997 12.235 43.1958 13.6725 41.9705 14.5644C41.982 14.5846 42.0094 14.6149 42.0527 14.6322C43.8409 15.364 45.1053 17.1089 45.1053 19.1598C45.1053 20.9134 44.1772 22.4375 42.7931 23.3049C42.8047 23.3237 42.8364 23.354 42.884 23.3684C45.1255 24.041 46.7015 26.2492 46.3306 28.785C45.9756 31.2227 47.3582 34.206 44.8945 34.206L37.6695 33.4916C37.4963 33.4887 37.3245 33.4786 37.16 33.454C34.1508 33.0326 33.1275 31.1939 32.7349 28.9164Z" fill="#D1A27B"/>
<path opacity="0.727" d="M33.5619 28.9167C33.3786 27.853 33.5388 26.8427 33.9502 25.9739C34.4972 24.8164 34.4308 23.4409 33.5489 22.5129C32.7378 21.6614 32.2312 20.5183 32.2081 19.2525C32.2067 19.2092 32.2067 19.1645 32.2081 19.1198C32.2139 18.4501 32.3481 17.7963 32.592 17.2002C33.064 16.0398 32.8677 14.725 31.9974 13.8229C31.8488 13.6685 31.7088 13.4953 31.5818 13.299C31.0564 12.4879 30.7692 11.4444 30.8082 10.4269C30.824 9.9939 30.9005 9.57102 31.0376 9.18134C31.1387 8.89557 31.2815 8.59825 31.4461 8.3197C31.7217 7.85641 32.0234 7.44074 32.2356 7.19105C32.3626 7.0424 32.5473 6.62096 32.0523 6.30633C31.8646 6.18653 31.6929 6.05231 31.5298 5.91664C30.8846 5.38551 30.5484 4.67542 30.6032 3.67523C30.6985 1.96205 32.3467 0.580838 34.0584 0.514447C34.0945 0.513004 34.1522 0.511562 34.1883 0.511562H39.0363C41.3859 0.511562 43.0082 1.82638 43.1395 3.61605C43.216 4.64799 42.8235 5.59046 42.1552 6.25292C43.7356 7.06837 44.8267 8.69639 44.8267 10.5972C44.8267 12.2324 44.0199 13.6728 42.7903 14.5633C42.809 14.5821 42.8393 14.6095 42.8812 14.6268C44.668 15.3586 45.9323 17.1035 45.9323 19.1544C45.9323 20.9123 44.9999 22.4407 43.61 23.3053C43.6302 23.3226 43.6649 23.3486 43.7111 23.3615C45.951 24.0341 47.5271 26.2423 47.1576 28.7782C46.8026 31.2159 48.1809 34.189 45.7172 34.189L38.2627 33.3115C38.0953 33.3057 37.9307 33.2942 37.772 33.2711C34.7844 32.8655 33.9559 31.1913 33.5619 28.9167Z" fill="#CE9D75"/>
<path opacity="0.818" d="M34.3904 28.9169C34.2071 27.8532 34.3673 26.8429 34.7787 25.974C35.3257 24.8165 35.2593 23.4411 34.3774 22.513C33.5692 21.6644 33.064 20.5256 33.0366 19.2642C33.0352 19.2209 33.0352 19.1762 33.0352 19.1329C33.0381 18.4661 33.1708 17.8123 33.409 17.2162C33.8766 16.0472 33.6717 14.7309 32.7913 13.8317C32.6397 13.6773 32.4983 13.5027 32.3698 13.3049C31.8416 12.488 31.5558 11.4287 31.5991 10.4068C31.6179 9.97095 31.6958 9.54663 31.8387 9.1555C31.9441 8.86829 32.0913 8.56808 32.2645 8.28665C32.5502 7.81902 32.875 7.4048 33.1261 7.18254C33.269 7.05553 33.4956 6.61966 32.9529 6.3108C32.7537 6.19678 32.5719 6.06977 32.403 5.93988C31.7319 5.42174 31.3841 4.72608 31.4303 3.70857C31.514 1.9853 33.1521 0.589641 34.8739 0.520364C34.9143 0.51892 34.9692 0.517479 35.0096 0.517479H39.8662C42.2159 0.517479 43.8381 1.83231 43.9695 3.62197C44.046 4.65392 43.6534 5.59638 42.9851 6.25884C44.5655 7.07429 45.6566 8.70231 45.6566 10.6031C45.6566 12.2412 44.847 13.6845 43.6115 14.575C43.6375 14.5923 43.6721 14.6154 43.7126 14.6327C45.4979 15.3659 46.7622 17.1094 46.7622 19.1589C46.7622 20.9211 45.8255 22.4524 44.4299 23.3169C44.4587 23.3328 44.4963 23.353 44.5424 23.3675C46.7824 24.04 48.3585 26.2482 47.989 28.7841C47.6339 31.2218 49.0065 34.1863 46.5428 34.1863L38.8574 33.1442C38.6957 33.1356 38.537 33.1226 38.3854 33.1009C35.418 32.6983 34.783 31.1886 34.3904 28.9169Z" fill="#CB9870"/>
<path opacity="0.909" d="M35.2188 28.9156C35.0355 27.8519 35.1957 26.8416 35.607 25.9728C36.154 24.8153 36.0876 23.4398 35.2058 22.5118C34.399 21.6646 33.8953 20.5316 33.865 19.2745C33.8635 19.2312 33.8635 19.1879 33.8635 19.1446C33.865 18.4807 33.9934 17.8284 34.2272 17.2309C34.6891 16.0531 34.4784 14.7354 33.5864 13.8391C33.4334 13.6847 33.2906 13.5101 33.1607 13.308C32.6295 12.4868 32.3438 11.4101 32.3914 10.3839C32.4116 9.94519 32.4939 9.51797 32.6411 9.12684C32.7493 8.83963 32.9038 8.53366 33.0827 8.25078C33.3786 7.77882 33.7279 7.3646 34.0151 7.1712C34.1738 7.0644 34.4437 6.61409 33.852 6.31101C33.6413 6.20276 33.4493 6.08441 33.2747 5.9574C32.579 5.4537 32.2168 4.76958 32.2572 3.7362C32.3279 2.00282 33.9588 0.589853 35.6893 0.520576C35.734 0.519133 35.786 0.517685 35.8307 0.517685H40.6946C43.0442 0.517685 44.6665 1.83251 44.7978 3.62218C44.8743 4.65412 44.4817 5.59658 43.8135 6.25905C45.3939 7.0745 46.485 8.70252 46.485 10.6033C46.485 12.2458 45.671 13.6905 44.4327 14.581C44.4659 14.5983 44.5034 14.6171 44.5438 14.6344C46.3291 15.3676 47.592 17.1111 47.592 19.1605C47.592 20.9271 46.6495 22.4613 45.2496 23.3244C45.2856 23.3374 45.3275 23.3547 45.3722 23.3691C47.6122 24.0417 49.1868 26.2499 48.8173 28.7843C48.4623 31.222 49.8305 34.1764 47.3669 34.1764L39.4505 32.9713C39.2932 32.9597 39.1431 32.9453 38.9973 32.9251C36.053 32.5296 35.6099 31.1845 35.2188 28.9156Z" fill="#C9926A"/>
<path opacity="0.87" d="M48.4191 19.1565C48.4191 20.9274 47.4723 22.4645 46.0665 23.3276C48.3772 23.9511 50.0211 26.1968 49.6444 28.7817C49.2894 31.2194 50.6518 34.1652 48.1881 34.1652L40.0423 32.7969C36.7097 32.4751 36.4572 31.2901 36.0473 28.916C35.864 27.8523 36.0242 26.842 36.4355 25.9731C36.9825 24.8156 36.9161 23.4402 36.0343 22.5121C35.203 21.6389 34.692 20.4612 34.692 19.1579C34.692 18.4969 34.8162 17.8446 35.0456 17.2456C35.5017 16.0592 35.2852 14.7415 34.3817 13.8467C34.2259 13.6923 34.0815 13.5162 33.9502 13.3112C33.1867 12.1292 32.9341 10.4073 33.4436 9.09685C33.7424 8.32758 34.3846 7.41688 34.9042 7.15853C35.0803 7.07193 35.3906 6.60575 34.7512 6.30988C33.6399 5.79752 33.0395 5.07588 33.0828 3.7625C33.142 1.96994 34.8566 0.515118 36.6506 0.515118H41.5231C43.8727 0.515118 45.495 1.82995 45.6263 3.61961C45.7028 4.65156 45.3102 5.59402 44.642 6.25648C46.2224 7.07193 47.3135 8.69995 47.3135 10.6007C47.3135 12.2461 46.4966 13.6951 45.2525 14.5842C47.0999 15.2871 48.4191 17.0623 48.4191 19.1565Z" fill="#C68D65"/>
</g>
<g opacity="0.24">
<path opacity="0.091" d="M4.44381 10.3637H7.79366C10.6167 10.3637 13.2637 9.08497 15.0923 6.93448C16.0853 5.76687 17.2847 4.82297 18.6399 4.28318C20.4195 3.57453 25.6571 3.29021 30.7923 3.18918C31.296 3.17908 31.7997 3.17186 32.2991 3.16464C35.532 3.12279 38.5615 3.14588 40.3771 3.16753C41.9258 3.18485 42.9245 3.24258 42.9952 3.30175C43.4268 3.33062 43.8381 3.45474 44.2292 3.62216C44.3505 4.0537 44.3548 4.52132 44.3187 5.02503C44.2985 5.31368 44.3259 6.10604 44.3404 7.2318C42.4641 7.20871 39.7147 7.19139 36.7848 7.22603C35.3776 7.2419 33.9285 7.27077 32.5127 7.31551C29.1066 7.4252 25.9054 7.63447 23.9887 8.0155C23.4157 8.13096 22.9409 8.26375 22.5858 8.41385C21.7559 8.76456 20.9852 9.26394 20.2867 9.873C19.8479 10.2569 19.4308 10.6755 19.0382 11.12C17.6844 12.6542 15.9063 13.7222 13.9507 14.1682C13.2752 14.3399 12.353 14.4294 11.64 14.4294H10.7596C10.7235 14.4294 8.44313 14.5059 8.41715 14.6373C7.61469 14.8393 6.94645 18.625 6.75305 23.7068C6.71408 24.772 6.69532 25.8833 6.69965 27.022C6.70831 28.8839 6.7848 30.6158 6.90315 32.1688C6.59285 32.1717 6.27966 32.1861 5.96502 32.2193C5.96935 32.2395 5.43389 32.2583 5.43967 32.2756H4.86669C4.83926 32.2756 3.32527 32.2308 3.30362 32.15C2.89372 29.9302 2.6296 26.5313 2.62527 22.7124C2.62527 22.4295 2.62672 22.1495 2.62816 21.871C2.68589 15.4498 3.47681 10.3637 4.44381 10.3637Z" fill="#E0C29C"/>
<path opacity="0.182" d="M4.18115 10.101H7.531C10.3541 10.101 13.001 8.82229 14.8297 6.6718C15.8226 5.50419 17.022 4.56029 18.3772 4.0205C20.1727 3.30608 25.4883 3.02319 30.6653 2.92361C31.1762 2.9135 31.6857 2.90629 32.1894 2.89907C35.584 2.85722 38.7174 2.88897 40.3512 2.90773C41.8449 2.92361 42.8365 3.01598 42.975 3.13288C43.4008 3.19061 43.8035 3.34072 44.1831 3.53267C44.2249 3.87762 44.1152 4.25576 44.0416 4.72338C44.0012 4.98028 43.9492 5.6947 43.8035 6.705C41.9142 6.6819 39.146 6.66459 36.2003 6.69923C34.7815 6.71655 33.3224 6.74541 31.9008 6.79159C28.4383 6.90561 25.1996 7.12211 23.3335 7.52189C22.7706 7.64457 22.2986 7.7889 21.9349 7.95055C21.1079 8.32003 20.3401 8.83383 19.6473 9.45877C19.2115 9.85279 18.79 10.2742 18.3873 10.713C17.0018 12.2284 15.1919 13.2661 13.2132 13.6674C12.6056 13.8218 11.5303 13.9026 10.8895 13.9026H10.0062C9.93406 13.9026 7.84563 14.0556 7.79223 14.3169C7.02441 14.721 6.39225 18.4937 6.21762 23.4788C6.18298 24.5612 6.16854 25.6812 6.1772 26.8185C6.19452 28.7063 6.28112 30.4527 6.41246 31.997C6.13968 32.0432 5.8669 32.0952 5.58979 32.1601C5.59845 32.2005 5.12217 32.2366 5.13227 32.2712H4.56073C4.50589 32.2712 3.11601 32.1803 3.06983 32.0216C2.6455 29.8321 2.36984 26.4014 2.36118 22.5277C2.36118 22.2448 2.36118 21.9619 2.36406 21.6805C2.41602 15.2276 3.20982 10.101 4.18115 10.101Z" fill="#DEBC96"/>
<path opacity="0.273" d="M3.91856 9.83852H7.26841C10.0915 9.83852 12.7384 8.55978 14.5671 6.4093C15.56 5.24168 16.7594 4.29778 18.1147 3.75799C19.926 3.03635 25.3209 2.75491 30.5384 2.65966C31.0551 2.64956 31.5703 2.64234 32.0813 2.63657C35.6361 2.59616 38.8748 2.63368 40.3267 2.651C41.7642 2.66399 42.7514 2.79244 42.9578 2.96852C43.3778 3.05512 43.7718 3.22975 44.1398 3.44768C44.1038 3.70459 43.9854 4.02644 43.7675 4.42623C43.7675 4.65715 43.5755 5.28642 43.2696 6.18414C41.3688 6.16105 38.5818 6.14373 35.6187 6.17981C34.1899 6.19713 32.7206 6.22744 31.2903 6.27362C27.7716 6.39053 24.4954 6.6128 22.6812 7.03423C22.1284 7.16269 21.6579 7.31856 21.287 7.4932C20.4629 7.88 19.6979 8.40968 19.0095 9.05049C18.5765 9.45461 18.1507 9.87749 17.7394 10.3119C16.3207 11.8072 14.4819 12.816 12.4801 13.1725C11.9403 13.3096 10.7135 13.3818 10.1434 13.3818H9.25725C9.14901 13.3818 7.25254 13.6127 7.17171 14.0038C6.43708 14.61 5.84245 18.3683 5.68802 23.2567C5.65627 24.3565 5.64761 25.4851 5.6606 26.621C5.68658 28.5348 5.78328 30.297 5.92616 31.8312C5.69235 31.9192 5.4571 32.0102 5.2204 32.1069C5.23339 32.1675 4.81628 32.2223 4.82927 32.2743H4.25629C4.17402 32.2743 2.90683 32.1386 2.83755 31.899C2.40023 29.7399 2.11158 26.276 2.09859 22.3489C2.09715 22.0645 2.09859 21.7802 2.10003 21.4973C2.14766 15.0069 2.94435 9.83852 3.91856 9.83852Z" fill="#DBB791"/>
<path opacity="0.364" d="M3.6573 9.57585H7.00715C9.8302 9.57585 12.4772 8.2971 14.3058 6.14662C15.2988 4.97901 16.4981 4.0351 17.8534 3.49531C19.6806 2.7679 25.1535 2.4879 30.4114 2.39409C30.9353 2.38543 31.4563 2.37677 31.9715 2.371C35.688 2.33059 39.0292 2.37533 40.3007 2.38976C41.6819 2.40131 42.6633 2.5644 42.939 2.79821C43.3532 2.91367 43.74 3.11429 44.0951 3.35676C43.9811 3.52706 43.7833 3.77242 43.4918 4.12314C43.4918 4.3252 43.2002 4.87365 42.7355 5.6559C40.8232 5.63281 38.016 5.61549 35.0371 5.65157C33.5981 5.66889 32.1173 5.6992 30.6798 5.74827C27.1034 5.86951 23.791 6.10043 22.0288 6.53919C21.4861 6.67486 21.0185 6.84228 20.6389 7.0299C19.8177 7.43547 19.0556 7.98102 18.373 8.63627C17.9414 9.05049 17.5128 9.47626 17.0913 9.90492C15.6408 11.3814 13.7718 12.3599 11.7469 12.6717C11.2735 12.7915 9.89515 12.855 9.39577 12.855H8.5096C8.36671 12.855 6.66076 13.1624 6.55251 13.6849C5.85252 14.4945 5.29397 18.237 5.15831 23.0301C5.13088 24.1472 5.12655 25.2845 5.14532 26.4204C5.17996 28.3601 5.28676 30.1368 5.44119 31.6638C5.2449 31.7951 5.04862 31.9236 4.85089 32.052C4.86821 32.1314 4.50883 32.2065 4.52759 32.2743H3.95028C3.84059 32.2743 2.69607 32.0939 2.6037 31.7749C2.1534 29.6461 1.85175 26.149 1.83588 22.1685C1.83444 21.8827 1.83444 21.5969 1.83732 21.3126C1.87918 14.7846 2.67731 9.57585 3.6573 9.57585Z" fill="#D8B28B"/>
<path opacity="0.455" d="M3.39459 9.31322H6.74444C9.5675 9.31322 12.2145 8.03447 14.0431 5.88399C15.0361 4.71638 16.2354 3.77247 17.5907 3.23268C19.4338 2.4995 24.986 2.22094 30.2843 2.13002C30.814 2.12136 31.3422 2.11414 31.8633 2.10837C35.7399 2.0694 39.1865 2.11991 40.2761 2.1329C41.6025 2.14301 42.5767 2.34074 42.9202 2.63372C43.3287 2.77805 43.7068 3.0032 44.0503 3.27021C43.8569 3.35392 43.5798 3.52422 43.2175 3.82443C43.2175 3.99762 42.8264 4.4638 42.2015 5.13203C40.2761 5.10894 37.4502 5.09162 34.4539 5.12915C33.0035 5.14791 31.514 5.17822 30.0678 5.22729C26.4351 5.35286 23.0852 5.591 21.3735 6.04852C20.8409 6.1914 20.3748 6.36893 19.988 6.56954C19.1696 6.99242 18.4105 7.55386 17.7336 8.22354C17.3049 8.64786 16.8734 9.07507 16.4418 9.4994C14.9581 10.9571 13.0588 11.9053 11.0108 12.1723C10.6052 12.2748 9.0739 12.3297 8.64669 12.3297H7.75618C7.57722 12.3297 6.06322 12.7136 5.92755 13.3659C5.26075 14.3777 4.73107 18.1071 4.62427 22.8021C4.59829 23.9365 4.60118 25.0825 4.62427 26.2169C4.66757 28.1841 4.78447 29.9752 4.95189 31.4921C4.79313 31.6667 4.63582 31.8327 4.4785 31.9943C4.50015 32.0939 4.19994 32.1877 4.22304 32.2729H3.64717C3.51006 32.2729 2.48822 32.0477 2.3742 31.6479C1.90946 29.5509 1.59771 26.0206 1.57606 21.9852C1.57462 21.698 1.57462 21.4108 1.57606 21.1236C1.6107 14.5624 2.41172 9.31322 3.39459 9.31322Z" fill="#D6AD86"/>
<path opacity="0.545" d="M3.1319 9.05194H6.48175C9.3048 9.05194 11.9518 7.77319 13.7804 5.6227C14.7734 4.45509 15.9728 3.51119 17.328 2.9714C19.1855 2.231 24.8186 1.95389 30.1573 1.86585C30.6942 1.85719 31.2282 1.84997 31.7536 1.8442C35.7904 1.80523 39.3423 1.86585 40.2516 1.87451C41.5217 1.88605 42.4425 2.18049 42.9029 2.46626C43.2753 2.69718 43.6765 2.89058 44.007 3.18212C43.7357 3.17779 43.3792 3.27449 42.9433 3.52418C42.9433 3.66851 42.4526 4.05386 41.6689 4.60664C39.732 4.58355 36.8859 4.56623 33.8737 4.60375C32.4131 4.62252 30.9136 4.65427 29.4587 4.70478C25.7697 4.83468 22.3838 5.08148 20.7226 5.55776C20.2001 5.70786 19.7368 5.89693 19.3428 6.10909C18.5259 6.54929 17.7711 7.1266 17.0985 7.81216C16.6727 8.24659 16.2369 8.67668 15.7967 9.09524C14.2812 10.5342 12.3516 11.4521 10.2805 11.6758C9.94273 11.761 8.25843 11.8057 7.90338 11.8057H7.01143C6.79639 11.8057 5.47434 12.2661 5.31125 13.0498C4.67909 14.2636 4.18549 17.9786 4.09745 22.5783C4.0758 23.7301 4.08158 24.8847 4.11044 26.0191C4.1624 28.0123 4.29085 29.8178 4.46838 31.3261C4.34858 31.5426 4.22879 31.7475 4.11044 31.9409C4.13787 32.0607 3.89539 32.1718 3.92282 32.2743H3.34262C3.17808 32.2743 2.27892 32.003 2.14181 31.5238C1.66409 29.457 1.33935 25.8936 1.31337 21.8033C1.31193 21.5146 1.31193 21.226 1.31337 20.9373C1.34223 14.3416 2.14614 9.05194 3.1319 9.05194Z" fill="#D3A780"/>
<path opacity="0.636" d="M2.86924 8.7891H6.21909C9.04214 8.7891 11.6891 7.51035 13.5177 5.35987C14.5107 4.19226 15.7101 3.24836 17.0653 2.70857C18.9387 1.96239 24.6498 1.68673 30.0303 1.60013C30.573 1.59147 31.1128 1.58425 31.6453 1.57992C35.8438 1.54095 39.4996 1.60879 40.2271 1.61601C41.4423 1.62611 42.3588 1.94796 42.8856 2.30012C43.2565 2.54836 43.6447 2.77929 43.9637 3.09536C43.6144 3.00444 43.1771 3.02464 42.6691 3.22526C42.6691 3.34072 42.0788 3.64381 41.1349 4.08257C39.1865 4.05948 36.3201 4.04216 33.2921 4.08113C31.82 4.09989 30.3103 4.13308 28.8497 4.18504C25.1044 4.31782 21.6809 4.57473 20.0702 5.06833C19.5579 5.22565 19.096 5.42482 18.6948 5.64997C17.8808 6.10604 17.1288 6.70212 16.462 7.40211C16.0392 7.84664 15.599 8.27818 15.1487 8.69096C13.6015 10.1111 11.6415 10.9988 9.54729 11.1777C9.2774 11.2456 7.44155 11.2816 7.15578 11.2816H6.26094C6.00981 11.2816 4.87828 11.82 4.68921 12.7336C4.0917 14.1494 3.64284 17.85 3.56634 22.3545C3.55047 23.525 3.55913 24.6868 3.59232 25.8198C3.65294 27.8389 3.79149 29.6589 3.98056 31.1585C3.8983 31.4183 3.81747 31.6607 3.73954 31.8859C3.77129 32.0259 3.58655 32.1558 3.61974 32.2756H3.0381C2.84615 32.2756 2.06966 31.9595 1.90946 31.4009C1.4173 29.3645 1.08102 25.7678 1.05215 21.6242C1.05071 21.3341 1.04926 21.044 1.05071 20.7524C1.0738 14.1191 1.87915 8.7891 2.86924 8.7891Z" fill="#D1A27B"/>
<path opacity="0.727" d="M2.60653 8.52663H5.95638C8.77944 8.52663 11.4264 7.24788 13.255 5.0974C14.248 3.92979 15.4474 2.98588 16.8026 2.4461C18.6919 1.69415 24.4823 1.41993 29.9018 1.33622C30.4517 1.32756 30.9973 1.32178 31.5342 1.31601C35.8929 1.27848 39.654 1.35209 40.1996 1.35642C41.3586 1.36508 42.2765 1.71147 42.8639 2.13146C43.2334 2.39558 43.6086 2.66403 43.916 3.00609C43.4888 2.82856 42.9721 2.77372 42.3905 2.92382C42.3905 3.01042 41.7006 3.23268 40.598 3.55742C38.6365 3.53433 35.7514 3.51701 32.7075 3.55742C31.2253 3.57762 29.7055 3.61082 28.2363 3.66278C24.4332 3.79989 20.9737 4.06545 19.415 4.57637C18.9127 4.74091 18.4537 4.95018 18.0438 5.18832C17.2313 5.66172 16.4837 6.27367 15.8212 6.98954C15.4012 7.44417 14.9581 7.87859 14.4977 8.2856C12.9173 9.68702 10.927 10.5443 8.81119 10.6786C8.60913 10.7305 6.62029 10.7565 6.40669 10.7565H5.51185C5.22464 10.7565 4.28507 11.3713 4.06858 12.4148C3.50425 14.0327 3.09292 17.7203 3.03519 22.1266C3.02364 23.3145 3.03663 24.4864 3.07416 25.6165C3.14343 27.6616 3.29209 29.4975 3.49271 30.9884C3.44797 31.29 3.40611 31.5715 3.36714 31.8284C3.40322 31.9886 3.27766 32.1372 3.31518 32.2729H2.73354C2.51416 32.2729 1.86036 31.9121 1.67706 31.2727C1.17192 29.2665 0.822642 25.6367 0.789447 21.4396C0.786561 21.1495 0.78656 20.8566 0.78656 20.5636C0.805323 13.8971 1.61356 8.52663 2.60653 8.52663Z" fill="#CE9D75"/>
<path opacity="0.818" d="M2.34529 8.26375H5.69514C8.51819 8.26375 11.1652 6.985 12.9938 4.83452C13.9868 3.66691 15.1861 2.723 16.5414 2.18321C18.4465 1.42405 24.3149 1.15271 29.7762 1.07045C30.3319 1.06179 30.8847 1.05601 31.4274 1.05168C35.9477 1.01416 39.8128 1.09498 40.1765 1.09787C41.2792 1.10653 42.2 1.47312 42.848 1.96528C43.2189 2.24672 43.5798 2.5527 43.8756 2.91785C43.369 2.65228 42.7744 2.52383 42.1192 2.62341C42.1177 2.68114 41.3297 2.82114 40.0668 3.03186C38.0939 3.00877 35.19 2.99145 32.1288 3.03186C30.6364 3.05207 29.1066 3.08526 27.6286 3.14011C23.7693 3.28155 20.2737 3.55577 18.7655 4.08401C18.2733 4.25576 17.8158 4.47514 17.3987 4.72627C16.5876 5.21554 15.8443 5.84626 15.1876 6.57656C14.769 7.04129 14.3231 7.47716 13.854 7.87984C12.2419 9.2625 10.2213 10.0895 8.08088 10.179C7.94521 10.2136 5.80483 10.2309 5.66339 10.2309H4.76278C4.43949 10.2309 3.69187 10.9223 3.44796 12.0971C2.91827 13.9171 2.54302 17.5902 2.50405 21.9013C2.49683 23.1064 2.51415 24.287 2.55601 25.4171C2.63395 27.4882 2.79271 29.3385 3.00631 30.8207C3.00054 31.1657 2.99765 31.4847 2.99765 31.7748C3.03806 31.9552 2.97167 32.1211 3.01353 32.2756H2.429C2.1822 32.2756 1.65107 31.87 1.44613 31.1513C0.926547 29.1754 0.565728 25.5138 0.528202 21.2619C0.525316 20.9704 0.523873 20.6759 0.525316 20.3801C0.536862 13.6746 1.34654 8.26375 2.34529 8.26375Z" fill="#CB9870"/>
<path opacity="0.909" d="M2.08268 8.00123H5.43253C8.25558 8.00123 10.9026 6.72249 12.7312 4.572C13.7242 3.40439 14.9235 2.46048 16.2788 1.9207C18.1998 1.15576 24.1475 0.884422 29.6493 0.806485C30.2122 0.797826 30.7693 0.792052 31.3177 0.787722C35.9983 0.75164 39.9673 0.838236 40.1506 0.839679C41.1984 0.846895 42.125 1.23081 42.8293 1.79946C43.2003 2.09966 43.5466 2.44028 43.831 2.83141C43.2464 2.47925 42.571 2.2743 41.845 2.32481C41.8436 2.35368 40.956 2.41286 39.5343 2.50811C37.5498 2.48502 34.6257 2.4677 31.5487 2.50955C30.0448 2.52976 28.5048 2.5644 27.0197 2.61924C23.104 2.76357 19.5723 3.05078 18.1132 3.59346C17.6311 3.77387 17.175 4.00046 16.7507 4.26747C15.941 4.77117 15.2021 5.42065 14.5497 6.16538C14.1341 6.64022 13.6838 7.07897 13.2046 7.47587C11.5592 8.83977 9.50835 9.63646 7.34632 9.6812C7.27848 9.69852 4.98656 9.70719 4.91439 9.70719H4.01234C3.65441 9.70719 3.0973 10.475 2.82597 11.7812C2.32948 13.8047 1.99175 17.4619 1.97299 21.6763C1.96866 22.8988 1.99175 24.088 2.03794 25.2167C2.12453 27.3152 2.2934 29.1799 2.51855 30.652C2.5503 31.0403 2.58638 31.3968 2.62535 31.7186C2.67009 31.9178 2.66143 32.104 2.70906 32.2743H2.12453C1.85031 32.2743 1.44186 31.8225 1.21382 31.0244C0.681255 29.0789 0.30889 25.3841 0.265591 21.0788C0.262705 20.7858 0.261261 20.4899 0.261261 20.1926C0.268477 13.4539 1.08104 8.00123 2.08268 8.00123Z" fill="#C9926A"/>
<path opacity="0.24" d="M41.5693 2.02366C41.5679 2.02366 36.5077 1.9082 30.9655 1.98469C25.4234 2.06119 19.3962 2.33108 17.4593 3.10179C16.1041 3.64158 14.9047 4.58548 13.9118 5.75309C12.0831 7.90214 9.43471 9.18232 6.6131 9.18232H3.26325C2.25729 9.18232 1.44328 14.6754 1.44328 21.4502C1.44328 26.1394 1.83441 30.2094 2.40739 32.2748H1.81997C0.814009 32.2748 0 26.7817 0 20.0069C0 13.2322 0.815452 7.73905 1.81997 7.73905H5.16982C7.99288 7.73905 10.6399 6.4603 12.4685 4.30982C13.4615 3.1422 14.6608 2.1983 16.0161 1.65851C17.9529 0.8878 23.9786 0.617909 29.5223 0.541416C35.0659 0.464922 40.1246 0.580379 40.126 0.580379C41.6083 0.580379 42.9664 1.48676 43.7862 2.74241C43.1237 2.30366 42.3689 2.02366 41.5693 2.02366Z" fill="#C68D65"/>
</g>
<path d="M49.1869 5.76471C48.8059 8.55313 46.2369 10.5044 43.4484 10.1249C42.3515 9.97476 41.3918 9.47827 40.6441 8.77106L36.3634 6.8515C36.1902 6.8616 36.0155 6.86161 35.838 6.83563C34.2172 6.59749 33.0987 4.87565 33.3397 2.99073C33.5634 1.23715 34.8855 -0.0228333 36.3735 0.000259147L44.4558 0.0146895C44.58 0.0219059 44.7026 0.010358 44.8282 0.0276774C47.6166 0.40726 49.5679 2.9763 49.1869 5.76471Z" fill="url(#paint1_radial_1_56)"/>
<path d="M52.8268 13.1666C52.4314 16.4255 49.4669 18.7463 46.2079 18.3509C44.8845 18.1907 43.7298 17.5917 42.835 16.7359L36.2479 15.0126C34.35 14.6157 33.0351 12.6037 33.2848 10.3681C33.5287 8.18732 35.1741 6.60548 37.046 6.63146L47.1143 6.53765C47.2904 6.54342 47.4622 6.5261 47.6397 6.54775C50.9015 6.94321 53.2237 9.90626 52.8268 13.1666Z" fill="url(#paint2_radial_1_56)"/>
<path d="M54.514 21.7498C54.0853 25.0044 51.0978 27.2949 47.8432 26.8663C47.6584 26.8417 37.7777 23.4645 37.7777 23.4645C35.838 23.0921 34.5044 21.0369 34.7829 18.7724C35.0384 16.6998 36.5553 15.1699 38.3146 15.0631C38.3146 15.0631 49.1493 15.0458 49.3976 15.079C52.6522 15.5077 54.9426 18.4938 54.514 21.7498Z" fill="url(#paint3_radial_1_56)"/>
<path d="M54.7941 29.6451C54.4491 32.5014 51.9118 34.5421 49.07 34.3242C49.07 34.3242 48.6904 34.2824 48.6139 34.2694L38.843 32.6543C36.9696 32.2214 35.6807 30.1214 35.9362 27.7804C36.1844 25.5015 37.8038 23.8359 39.6541 23.82L49.5463 23.6757C49.7383 23.6786 49.9259 23.6642 50.1207 23.6872C53.0564 24.0409 55.1491 26.708 54.7941 29.6451Z" fill="url(#paint4_radial_1_56)"/>
<path opacity="0.15" d="M20.7298 18.2729C15.0072 19.4305 9.76089 17.3695 9.01327 13.6718C8.26566 9.9741 12.2982 6.03683 18.0222 4.88077C23.7463 3.7247 28.9911 5.78426 29.7388 9.48194C30.4864 13.1796 26.4539 17.1154 20.7298 18.2729Z" fill="url(#paint5_radial_1_56)"/>
<path opacity="0.59" d="M32.3005 36.0304C31.9541 33.3646 31.1156 30.6614 29.8195 28.1299C29.0228 26.5755 28.0486 25.073 26.9344 23.712C25.0639 21.4273 22.7114 19.4283 20.0384 18.1222C19.1349 17.6805 18.1881 17.3327 17.2197 17.0686C16.335 16.829 15.1948 16.4523 14.2696 16.5851C14.0084 16.5865 13.7486 16.6471 13.5321 16.7987C13.3445 16.9315 13.203 17.1292 13.1727 17.3601C13.1698 17.3789 13.1684 17.3991 13.167 17.4179C13.1424 17.9115 13.6144 18.3358 14.261 18.3618C19.6083 18.6475 25.0841 22.7883 28.2348 28.9395C29.5265 31.4624 30.3203 34.1599 30.5902 36.7924L32.3005 36.0304Z" fill="url(#paint6_linear_1_56)"/>
<path opacity="0.15" d="M22.1773 22.937C17.797 19.2148 12.4655 18.2926 10.2674 20.8775C8.07074 23.4624 9.8402 28.5759 14.2205 32.2981C18.6009 36.0203 23.9324 36.9426 26.1305 34.3577C28.3286 31.7728 26.5577 26.6592 22.1773 22.937Z" fill="url(#paint7_radial_1_56)"/>
<path opacity="0.02" d="M45.4892 25.1451C50.212 25.1451 54.0406 26.8122 54.0406 28.8687C54.0406 30.9253 50.212 32.5924 45.4892 32.5924C40.7664 32.5924 36.9378 30.9253 36.9378 28.8687C36.9378 26.8122 40.7664 25.1451 45.4892 25.1451Z" fill="url(#paint8_radial_1_56)"/>
<path opacity="0.02" d="M44.1094 15.6571C48.8322 15.6571 52.6608 17.1182 52.6608 18.9204C52.6608 20.7226 48.8322 22.1837 44.1094 22.1837C39.3866 22.1837 35.558 20.7226 35.558 18.9204C35.558 17.1182 39.3866 15.6571 44.1094 15.6571Z" fill="url(#paint9_radial_1_56)"/>
<path opacity="0.02" d="M42.5897 7.22856C47.3125 7.22856 51.1411 8.68957 51.1411 10.4918C51.1411 12.2941 47.3125 13.7551 42.5897 13.7551C37.8669 13.7551 34.0383 12.2941 34.0383 10.4918C34.0383 8.68957 37.8669 7.22856 42.5897 7.22856Z" fill="url(#paint10_radial_1_56)"/>
<path opacity="0.02" d="M40.6716 1.06328C44.0553 1.06328 46.7983 2.11009 46.7983 3.40139C46.7983 4.6927 44.0553 5.7395 40.6716 5.7395C37.2879 5.7395 34.5449 4.6927 34.5449 3.40139C34.5449 2.11009 37.2879 1.06328 40.6716 1.06328Z" fill="url(#paint11_radial_1_56)"/>
</g>
<defs>
<radialGradient id="paint0_radial_1_56" cx="0" cy="0" r="1" gradientUnits="userSpaceOnUse" gradientTransform="translate(17.7624 31.2392) scale(31.8416 28.7339)">
<stop stop-color="#E3C7A1"/>
<stop offset="0.629" stop-color="#DAAE88"/>
<stop offset="0.75" stop-color="#D7A983"/>
<stop offset="0.899" stop-color="#CE9A73"/>
<stop offset="0.999" stop-color="#C68D65"/>
</radialGradient>
<radialGradient id="paint1_radial_1_56" cx="0" cy="0" r="1" gradientUnits="userSpaceOnUse" gradientTransform="translate(40.0351 2.63801) scale(9.54873 4.85744)">
<stop stop-color="#E3C7A1"/>
<stop offset="0.629" stop-color="#DAAE88"/>
<stop offset="0.75" stop-color="#D7A983"/>
<stop offset="0.899" stop-color="#CE9A73"/>
<stop offset="0.999" stop-color="#C68D65"/>
</radialGradient>
<radialGradient id="paint2_radial_1_56" cx="0" cy="0" r="1" gradientUnits="userSpaceOnUse" gradientTransform="translate(42.3501 9.84061) scale(11.0339 5.8325)">
<stop stop-color="#E3C7A1"/>
<stop offset="0.629" stop-color="#DAAE88"/>
<stop offset="0.75" stop-color="#D7A983"/>
<stop offset="0.899" stop-color="#CE9A73"/>
<stop offset="0.999" stop-color="#C68D65"/>
</radialGradient>
<radialGradient id="paint3_radial_1_56" cx="0" cy="0" r="1" gradientUnits="userSpaceOnUse" gradientTransform="translate(43.7269 17.5819) scale(11.9518 6.7444)">
<stop stop-color="#E3C7A1"/>
<stop offset="0.629" stop-color="#DAAE88"/>
<stop offset="0.75" stop-color="#D7A983"/>
<stop offset="0.899" stop-color="#CE9A73"/>
<stop offset="0.999" stop-color="#C68D65"/>
</radialGradient>
<radialGradient id="paint4_radial_1_56" cx="0" cy="0" r="1" gradientUnits="userSpaceOnUse" gradientTransform="translate(44.9672 28.7608) rotate(4.7094) scale(10.54 6.88178)">
<stop stop-color="#E3C7A1"/>
<stop offset="0.629" stop-color="#DAAE88"/>
<stop offset="0.75" stop-color="#D7A983"/>
<stop offset="0.899" stop-color="#CE9A73"/>
<stop offset="0.999" stop-color="#C68D65"/>
</radialGradient>
<radialGradient id="paint5_radial_1_56" cx="0" cy="0" r="1" gradientUnits="userSpaceOnUse" gradientTransform="translate(19.3694 11.6015) rotate(78.5677) scale(6.13673 9.29845)">
<stop offset="0.425" stop-color="white"/>
<stop offset="1" stop-color="white" stop-opacity="0"/>
</radialGradient>
<linearGradient id="paint6_linear_1_56" x1="33.6051" y1="35.4621" x2="19.1216" y2="19.7331" gradientUnits="userSpaceOnUse">
<stop stop-color="#E3C7A1" stop-opacity="0"/>
<stop offset="0.605" stop-color="#DAAE88"/>
<stop offset="0.999" stop-color="#C68D65" stop-opacity="0.64"/>
</linearGradient>
<radialGradient id="paint7_radial_1_56" cx="0" cy="0" r="1" gradientUnits="userSpaceOnUse" gradientTransform="translate(18.2054 27.6291) rotate(-49.6414) scale(5.51765 9.1545)">
<stop offset="0.425" stop-color="white"/>
<stop offset="1" stop-color="white" stop-opacity="0"/>
</radialGradient>
<radialGradient id="paint8_radial_1_56" cx="0" cy="0" r="1" gradientUnits="userSpaceOnUse" gradientTransform="translate(45.4757 28.8674) rotate(90) scale(3.34451 7.5209)">
<stop offset="0.425" stop-color="white"/>
<stop offset="1" stop-color="white" stop-opacity="0"/>
</radialGradient>
<radialGradient id="paint9_radial_1_56" cx="0" cy="0" r="1" gradientUnits="userSpaceOnUse" gradientTransform="translate(44.0956 18.9027) rotate(90) scale(2.93098 7.5209)">
<stop offset="0.425" stop-color="white"/>
<stop offset="1" stop-color="white" stop-opacity="0"/>
</radialGradient>
<radialGradient id="paint10_radial_1_56" cx="0" cy="0" r="1" gradientUnits="userSpaceOnUse" gradientTransform="translate(42.5758 10.4742) rotate(90) scale(2.93098 7.5209)">
<stop offset="0.425" stop-color="white"/>
<stop offset="1" stop-color="white" stop-opacity="0"/>
</radialGradient>
<radialGradient id="paint11_radial_1_56" cx="0" cy="0" r="1" gradientUnits="userSpaceOnUse" gradientTransform="translate(40.6589 3.38376) rotate(90) scale(2.10017 5.38905)">
<stop offset="0.425" stop-color="white"/>
<stop offset="1" stop-color="white" stop-opacity="0"/>
</radialGradient>
<clipPath id="clip0_1_56">
<rect width="56" height="56" fill="white"/>
</clipPath>
</defs>
</svg>
