<svg width="104" height="46" viewBox="0 0 104 46" fill="none" xmlns="http://www.w3.org/2000/svg">
<path d="M24.4634 32.4529V39.9373H22.0806V21.4692H28.4103C30.0232 21.4692 31.3796 22.0038 32.5038 23.073C33.6402 24.1422 34.2145 25.4423 34.2145 26.9732C34.2145 28.5406 33.6402 29.8406 32.5038 30.8977C31.3918 31.9426 30.0355 32.4772 28.4103 32.4772H24.4634V32.4529ZM24.4634 23.7413V30.193H28.4591C29.4123 30.193 30.1943 29.8771 30.8175 29.2331C31.4529 28.6013 31.7828 27.8359 31.7828 26.9611C31.7828 26.0984 31.4651 25.3572 30.8175 24.7133C30.1943 24.0572 29.4123 23.7291 28.4591 23.7291H24.4634V23.7413Z" fill="#777677"/>
<path d="M40.5931 26.8882C42.3527 26.8882 43.7457 27.362 44.7722 28.2976C45.7864 29.2331 46.2996 30.521 46.2996 32.1491V39.9373H44.0146V38.1877H43.9168C42.927 39.6335 41.6195 40.3504 39.9699 40.3504C38.5647 40.3504 37.3916 39.9373 36.4507 39.1111C35.5098 38.2849 35.0332 37.2521 35.0332 36.0128C35.0332 34.7006 35.5342 33.6679 36.524 32.8903C37.5138 32.1127 38.8457 31.7239 40.5076 31.7239C41.925 31.7239 43.0981 31.979 44.0146 32.5015V31.9547C44.0146 31.1285 43.6846 30.4238 43.0248 29.8528C42.3649 29.2817 41.5951 28.9901 40.7153 28.9901C39.3834 28.9901 38.3325 29.549 37.5504 30.6668L35.4487 29.3546C36.6218 27.7022 38.3325 26.8882 40.5931 26.8882ZM37.5138 36.0614C37.5138 36.6811 37.7826 37.1914 38.3081 37.6045C38.8335 38.0176 39.4567 38.2241 40.1654 38.2241C41.1674 38.2241 42.0594 37.8596 42.8537 37.1185C43.6357 36.3773 44.039 35.5147 44.039 34.5184C43.2936 33.9352 42.2549 33.6436 40.923 33.6436C39.9577 33.6436 39.1512 33.8744 38.4913 34.3361C37.8315 34.7978 37.5138 35.381 37.5138 36.0614Z" fill="#777677"/>
<path d="M49.0001 27.3012H51.2851V29.3667H51.3829C52.0916 27.7508 53.558 26.9367 55.7697 26.9367L56.2585 26.9853V29.4639L55.1954 29.3667C54.0834 29.3667 53.1792 29.707 52.4582 30.3874C51.7373 31.0678 51.3829 31.9304 51.3829 32.9753V39.9373H49.0001V27.3012ZM63.8956 40.1438C62.857 40.1438 62.0016 39.8279 61.3173 39.184C60.633 38.5522 60.2787 37.6652 60.2665 36.5231V29.4518H58.0303V27.2891H60.2665V23.4254H62.6492V27.2891H65.7652V29.4518H62.6492V35.7455C62.6492 36.5839 62.8081 37.1549 63.138 37.4587C63.468 37.7624 63.8345 37.9082 64.25 37.9082C64.4455 37.9082 64.6288 37.8839 64.8121 37.8475C64.9954 37.7989 65.1665 37.7503 65.3131 37.6774L66.0707 39.7915C65.4475 40.0345 64.7266 40.1438 63.8956 40.1438Z" fill="#777677"/>
<path d="M68.1725 27.3013H70.4575V29.0509H70.5553C70.9218 28.4312 71.4717 27.9209 72.2293 27.5078C72.9869 27.0947 73.769 26.8882 74.5755 26.8882C76.1273 26.8882 77.3248 27.3256 78.168 28.2125C79.0111 29.0995 79.4266 30.3631 79.4266 31.9912V39.9373H77.0438V32.1491C76.9949 30.0836 75.944 29.0509 73.9034 29.0509C72.9503 29.0509 72.156 29.4397 71.5206 30.193C70.8852 30.9584 70.5553 31.8697 70.5553 32.9389V39.9251H68.1725V27.3013V27.3013Z" fill="#777677"/>
<path d="M87.9436 40.3504C86.074 40.3504 84.5343 39.7186 83.3246 38.4428C82.1149 37.1671 81.5039 35.5633 81.5039 33.6193C81.5039 31.6874 82.0904 30.0958 83.2635 28.8079C84.4366 27.5321 85.9396 26.8882 87.7725 26.8882C89.6543 26.8882 91.1573 27.4957 92.2693 28.7107C93.3812 29.9257 93.9433 31.6267 93.9433 33.8015L93.9189 34.0567H83.9478C83.9845 35.296 84.3999 36.2923 85.1942 37.0456C85.9885 37.7989 86.9416 38.1755 88.0535 38.1755C89.581 38.1755 90.7663 37.4222 91.6338 35.9035L93.76 36.9362C93.1857 38.0054 92.4037 38.8316 91.3895 39.4391C90.363 40.0466 89.2266 40.3504 87.9436 40.3504ZM84.1311 32.0884H91.4261C91.3528 31.2136 90.9984 30.4846 90.3508 29.9135C89.7032 29.3425 88.8356 29.0509 87.7481 29.0509C86.8438 29.0509 86.074 29.3303 85.4264 29.8771C84.7665 30.4238 84.3388 31.165 84.1311 32.0884Z" fill="#777677"/>
<path d="M98.5256 39.9371H96.1428V27.3011H98.4279V29.3666H98.5256C98.77 28.6983 99.271 28.1273 100.016 27.6534C100.774 27.1796 101.507 26.9487 102.24 26.9487C102.937 26.9487 103.523 27.0459 104 27.2525L103.279 29.5488C102.986 29.4273 102.521 29.3666 101.874 29.3666C100.97 29.3666 100.187 29.7311 99.5276 30.4479C98.8555 31.1648 98.5256 32.0153 98.5256 32.9751V39.9371V39.9371Z" fill="#777677"/>
<path d="M27.4816 10.6677V12.2837H31.3552C31.233 13.3043 30.8053 14.094 30.0844 14.6529C29.3756 15.2118 28.5081 15.4913 27.4816 15.4913C26.2841 15.4913 25.2821 15.0782 24.4634 14.2398C23.6447 13.4136 23.2292 12.4052 23.2292 11.2023C23.2292 9.99948 23.6447 8.99103 24.4634 8.16483C25.2821 7.32648 26.2963 6.91338 27.4816 6.91338C28.6058 6.91338 29.5711 7.30218 30.4021 8.06763L31.5507 6.92553C30.4021 5.84418 29.0457 5.29742 27.4816 5.29742C26.4185 5.29742 25.4165 5.56472 24.4756 6.09933C23.5347 6.62178 22.8016 7.35078 22.2639 8.27418C21.7385 9.17328 21.4696 10.1453 21.4696 11.1902C21.4696 12.2472 21.7385 13.2192 22.2639 14.1305C22.7893 15.0417 23.5347 15.7586 24.4756 16.2932C25.4165 16.8278 26.4185 17.0951 27.4816 17.0951C29.0824 17.0951 30.4143 16.5969 31.4652 15.6006C32.5038 14.6165 33.0293 13.3043 33.0293 11.6762C33.0293 11.2874 33.0048 10.9593 32.9437 10.6677H27.4816V10.6677Z" fill="#487CBF"/>
<path d="M37.4282 9.50146C36.3407 9.50146 35.4242 9.86597 34.6911 10.595C33.9579 11.3118 33.5913 12.2109 33.5913 13.3044C33.5913 14.3736 33.9579 15.2727 34.7033 16.0139C35.4364 16.7429 36.3407 17.1074 37.4282 17.1074C38.5035 17.1074 39.42 16.7429 40.1532 16.0139C40.8986 15.2727 41.2651 14.3736 41.2651 13.3044C41.2651 12.2231 40.8986 11.324 40.1532 10.595C39.42 9.86597 38.5158 9.50146 37.4282 9.50146ZM38.9557 14.9447C38.5402 15.3821 38.0392 15.6008 37.4404 15.6008C36.8295 15.6008 36.3163 15.3821 35.9008 14.9447C35.4853 14.5073 35.2776 13.9605 35.2776 13.3044C35.2776 12.6362 35.4853 12.0894 35.9008 11.6642C36.3163 11.2268 36.8295 11.0081 37.4404 11.0081C38.0514 11.0081 38.5646 11.2268 38.9801 11.6642C39.3956 12.0894 39.6033 12.6362 39.6033 13.3044C39.5911 13.9484 39.3711 14.4951 38.9557 14.9447Z" fill="#EF372C"/>
<path d="M60.4742 5.71051H58.8001V16.8764H60.4742V5.71051Z" fill="#00AC4E"/>
<path d="M45.7986 9.50146C44.7111 9.50146 43.7946 9.86597 43.0614 10.595C42.3283 11.3118 41.9617 12.2109 41.9617 13.3044C41.9617 14.3736 42.3283 15.2727 43.0736 16.0139C43.8068 16.7429 44.7111 17.1074 45.7986 17.1074C46.8739 17.1074 47.7904 16.7429 48.5235 16.0139C49.2689 15.2727 49.6355 14.3736 49.6355 13.3044C49.6355 12.2231 49.2689 11.324 48.5235 10.595C47.7781 9.86597 46.8739 9.50146 45.7986 9.50146ZM47.3138 14.9447C46.8983 15.3821 46.3973 15.6008 45.7986 15.6008C45.1876 15.6008 44.6744 15.3821 44.2589 14.9447C43.8435 14.5073 43.6357 13.9605 43.6357 13.3044C43.6357 12.6362 43.8435 12.0894 44.2589 11.6642C44.6744 11.2268 45.1876 11.0081 45.7986 11.0081C46.4096 11.0081 46.9228 11.2268 47.3382 11.6642C47.7537 12.0894 47.9614 12.6362 47.9614 13.3044C47.9492 13.9484 47.7415 14.4951 47.3138 14.9447Z" fill="#FDB614"/>
<path d="M65.081 15.6006C64.2378 15.6006 63.6268 15.2118 63.2236 14.4464L68.3313 12.3444L68.1603 11.907C68.0259 11.5547 67.8548 11.2266 67.6348 10.9229C67.4149 10.6313 67.1705 10.364 66.8894 10.1574C66.6084 9.93872 66.3029 9.78077 65.9608 9.65927C65.6186 9.54992 65.2642 9.48917 64.8854 9.48917C63.859 9.48917 63.0036 9.85367 62.3071 10.5705C61.6228 11.2995 61.2807 12.2108 61.2807 13.2921C61.2807 14.3613 61.6473 15.2726 62.3682 16.0016C63.0892 16.7306 63.9934 17.0951 65.0687 17.0951C66.4251 17.0951 67.476 16.5362 68.2458 15.4062L66.9383 14.5436C66.4862 15.2604 65.863 15.6006 65.081 15.6006ZM63.5413 11.6033C63.969 11.178 64.4333 10.9715 64.9588 10.9715C65.2887 10.9715 65.582 11.0444 65.8386 11.1902C66.0952 11.336 66.2785 11.5304 66.3762 11.7734L62.967 13.1828C62.9425 12.551 63.1258 12.0164 63.5413 11.6033Z" fill="#EF372C"/>
<path d="M56.0508 10.352H55.9897C55.5131 9.78092 54.841 9.50146 53.9735 9.50146C52.9837 9.50146 52.1283 9.87812 51.3952 10.6193C50.6742 11.3726 50.3076 12.2595 50.3076 13.3044C50.3076 14.3372 50.6742 15.2363 51.3952 15.9774C52.1405 16.7186 52.9959 17.0831 53.9735 17.0831C54.8288 17.0831 55.5009 16.7915 55.9897 16.2204H56.0508V16.6092C56.0508 18.2009 55.3665 19.0028 54.0101 19.0028C53.5702 19.0028 53.1914 18.8813 52.8493 18.6261C52.5071 18.371 52.2505 18.0551 52.0794 17.642L50.6131 18.2495C50.7597 18.5897 50.943 18.8934 51.163 19.1607C51.3829 19.4402 51.6395 19.671 51.9328 19.8654C52.2261 20.0598 52.5438 20.2178 52.8981 20.3271C53.2403 20.4365 53.6069 20.4972 53.9979 20.4972C55.1343 20.4972 56.0263 20.157 56.6617 19.4645C57.2972 18.7841 57.6271 17.7999 57.6271 16.5363V9.73232H56.0386V10.352H56.0508ZM55.5742 14.9568C55.1832 15.3942 54.6944 15.6008 54.1323 15.6008C53.5336 15.6008 53.0326 15.3821 52.6171 14.9447C52.2139 14.5073 52.0061 13.9605 52.0061 13.3166C52.0061 12.6605 52.2139 12.1137 52.6293 11.6763C53.057 11.2268 53.558 10.9959 54.1323 10.9959C54.7066 10.9959 55.1954 11.2146 55.5742 11.652C55.9652 12.1016 56.173 12.6605 56.173 13.3044C56.173 13.9605 55.9775 14.5073 55.5742 14.9568Z" fill="#487CBF"/>
<path d="M12.1706 0H0V46H12.1706V0Z" fill="#487CBF"/>
</svg>
