<svg width="24" height="24" viewBox="0 0 24 24" fill="none" xmlns="http://www.w3.org/2000/svg">
<path fill-rule="evenodd" clip-rule="evenodd" d="M21.6 12.2273C21.6 11.5182 21.5364 10.8364 21.4182 10.1818H12V14.05H17.3818C17.15 15.3 16.4455 16.3591 15.3864 17.0682V19.5773H18.6182C20.5091 17.8364 21.6 15.2727 21.6 12.2273Z" fill="white"/>
<path fill-rule="evenodd" clip-rule="evenodd" d="M12 22.0001C14.7 22.0001 16.9636 21.1046 18.6182 19.5774L15.3864 17.0683C14.4909 17.6683 13.3454 18.0228 12 18.0228C9.39545 18.0228 7.1909 16.2637 6.40454 13.9001H3.06363V16.491C4.70908 19.7592 8.0909 22.0001 12 22.0001Z" fill="white"/>
<path fill-rule="evenodd" clip-rule="evenodd" d="M6.40455 13.9001C6.20455 13.3001 6.09091 12.6591 6.09091 12.0001C6.09091 11.341 6.20455 10.7001 6.40455 10.1001V7.50914H3.06364C2.38636 8.85914 2 10.3864 2 12.0001C2 13.6137 2.38636 15.141 3.06364 16.491L6.40455 13.9001Z" fill="white"/>
<path fill-rule="evenodd" clip-rule="evenodd" d="M12 5.97727C13.4682 5.97727 14.7864 6.48182 15.8227 7.47273L18.6909 4.60455C16.9591 2.99091 14.6954 2 12 2C8.0909 2 4.70908 4.24091 3.06363 7.50909L6.40454 10.1C7.1909 7.73636 9.39545 5.97727 12 5.97727Z" fill="white"/>
</svg>
