<svg width="56" height="56" viewBox="0 0 56 56" fill="none" xmlns="http://www.w3.org/2000/svg">
<g clip-path="url(#clip0_1_100)">
<path d="M1.83382 23.4808H6.38273C9.04984 23.4808 11.573 22.3494 13.401 20.408C14.2415 19.5151 15.1999 18.6905 16.263 17.9634C16.4753 17.8179 16.6992 17.706 16.9159 17.5707L20.8846 14.7887L25.8538 11.2912L26.2377 10.8826C27.6149 9.4138 28.6081 7.6207 29.1346 5.66181L30.2776 1.38921C30.4972 0.551555 31.2505 -0.0170603 32.0969 0.000390779C37.5213 0.40322 38.4302 9.96205 34.223 19.6503C34.1707 19.771 34.0936 19.9644 34.159 20.1709C34.2434 20.4327 34.6549 20.5679 35.4097 20.6348C36.0801 20.6945 46.2294 21.599 48.4224 21.599C49.6716 21.599 44.9336 48.4824 44.9336 50.6347C44.9336 53.0444 42.8424 55.4149 40.4327 55.4149C40.4283 55.4149 20.0411 55.8831 16.1393 54.3285C14.7738 53.7846 13.5653 52.8335 12.5648 51.6571C10.7222 49.4917 8.05367 48.2017 5.2106 48.2017H1.83382C0.8202 48.2017 0 42.6668 0 35.8406C0 29.0143 0.8202 23.4808 1.83382 23.4808Z" fill="url(#paint0_radial_1_100)"/>
<g opacity="0.87">
<path opacity="0.091" d="M27.9784 26.8634C27.7937 27.9352 27.9552 28.9532 28.3696 29.8286C28.9208 30.9949 28.8539 32.3808 27.9653 33.3159C27.1306 34.1928 26.6158 35.3752 26.6129 36.684C26.6129 36.7305 26.6129 36.7771 26.6143 36.8236C26.6318 37.5202 26.7947 38.1804 27.0724 38.7781C27.5872 39.8848 27.436 41.2053 26.6362 42.1287C26.4995 42.2858 26.3744 42.453 26.258 42.629C25.7505 43.4056 25.4568 44.3436 25.4611 45.3412C25.4626 45.76 25.5178 46.1657 25.6211 46.5511C25.6967 46.8318 25.797 47.1052 25.9207 47.3655C26.1272 47.8018 26.2261 48.2541 26.2144 48.6758C26.2057 48.9899 26.1403 49.3317 25.957 49.6516C25.8567 49.8261 25.7491 50.0021 25.6254 50.1679C25.1514 50.8034 24.9114 51.6047 25.0117 52.4947C25.1993 54.1496 26.9139 55.441 28.579 55.4817C28.5834 55.4817 28.6605 55.4817 28.6648 55.4817H33.4944C35.862 55.4817 37.4965 54.1569 37.6289 52.3536C37.706 51.3138 37.3104 50.3642 36.6371 49.6967C38.2295 48.875 39.3289 47.2346 39.3289 45.3194C39.3289 43.6964 38.5407 42.2654 37.3322 41.3638C37.3002 41.3347 37.3104 41.2823 37.3555 41.2649C39.1631 40.5305 40.4429 38.7694 40.4429 36.6985C40.4429 34.9578 39.5354 33.441 38.1742 32.5612C38.1364 32.5335 38.1495 32.4754 38.2004 32.4608C40.4603 31.7846 42.0498 29.5581 41.6775 27.0015C41.3198 24.5453 42.745 21.4826 40.2625 21.4826L34.3757 21.2136C34.1663 21.2005 33.9554 21.2005 33.7489 21.2325C30.5786 21.7066 28.3784 24.5526 27.9784 26.8634Z" fill="url(#paint1_linear_1_100)"/>
<path opacity="0.182" d="M28.8132 26.8637C28.6285 27.9355 28.79 28.9535 29.2044 29.829C29.7556 30.9953 29.6887 32.3812 28.8002 33.3163C27.9683 34.1903 27.4535 35.3682 27.4477 36.6727C27.4477 36.7192 27.4477 36.7643 27.4491 36.8108C27.4651 37.5045 27.6237 38.1648 27.8971 38.7625C28.406 39.8779 28.2475 41.1998 27.4375 42.1203C27.2994 42.2774 27.1714 42.4446 27.0536 42.625C26.5417 43.4073 26.2494 44.3613 26.2596 45.3633C26.2639 45.7851 26.3221 46.1937 26.4297 46.5791C26.5082 46.8598 26.6159 47.1375 26.7453 47.4007C26.962 47.8414 27.0929 48.2893 27.1103 48.6863C27.1234 48.9772 27.087 49.3276 26.8631 49.649C26.7467 49.8148 26.6333 49.9864 26.5039 50.1478C26.0051 50.7688 25.7506 51.5585 25.8451 52.4645C26.0196 54.1296 27.7269 55.4355 29.4008 55.4791C29.4095 55.4791 29.4837 55.4791 29.4924 55.4791H34.3292C36.6968 55.4791 38.3313 54.1543 38.4637 52.351C38.5408 51.3112 38.1452 50.3616 37.4719 49.6941C39.0643 48.8724 40.1637 47.232 40.1637 45.3168C40.1637 43.6909 39.3711 42.2556 38.1597 41.3554C38.135 41.3278 38.1481 41.2798 38.1932 41.2609C39.9994 40.525 41.2777 38.7654 41.2777 36.6945C41.2777 34.9494 40.3644 33.4282 38.9988 32.5499C38.9698 32.5237 38.9858 32.4699 39.0367 32.4553C41.2966 31.7791 42.8861 29.5526 42.5123 26.9975C42.1546 24.5413 43.5754 21.4888 41.093 21.4888L34.9735 21.3841C34.7699 21.3739 34.5648 21.3754 34.3656 21.4059C31.2171 21.8756 29.2117 24.5558 28.8132 26.8637Z" fill="url(#paint2_linear_1_100)"/>
<path opacity="0.273" d="M29.6465 26.8632C29.4618 27.935 29.6232 28.9529 30.0377 29.8284C30.5888 30.9947 30.5219 32.3806 29.6334 33.3157C28.803 34.1868 28.2911 35.3619 28.2809 36.6605C28.2809 36.707 28.2809 36.7521 28.2824 36.7972C28.2969 37.488 28.4511 38.1482 28.7201 38.7459C29.2247 39.8701 29.0589 41.192 28.2373 42.1111C28.0977 42.2681 27.9668 42.4368 27.8476 42.6186C27.3327 43.4068 27.0419 44.3768 27.055 45.3831C27.0608 45.8063 27.1219 46.2179 27.2353 46.6062C27.3182 46.8883 27.4316 47.169 27.5669 47.4351C27.7937 47.8801 27.9566 48.3237 28.0046 48.6959C28.0395 48.9635 28.0352 49.3242 27.7676 49.647C27.6381 49.8041 27.516 49.9699 27.3807 50.1284C26.8572 50.7348 26.5882 51.5128 26.6754 52.4348C26.8368 54.1101 28.5369 55.4306 30.218 55.4786C30.2311 55.4786 30.3023 55.4801 30.3169 55.4801H35.1625C37.53 55.4801 39.1646 54.1552 39.2969 52.3519C39.374 51.3121 38.9784 50.3625 38.3051 49.695C39.8975 48.8734 40.9969 47.233 40.9969 45.3177C40.9969 43.6875 40.2015 42.2507 38.9843 41.3505C38.9668 41.3243 38.9828 41.2792 39.0279 41.2618C40.8326 40.5259 42.1109 38.7663 42.1109 36.6969C42.1109 34.9474 41.1933 33.4233 39.8219 32.5464C39.8001 32.5217 39.8205 32.4737 39.8699 32.4577C42.1284 31.7815 43.7179 29.555 43.3456 26.9999C42.9878 24.5436 44.4028 21.4999 41.9204 21.4999L35.5697 21.5595C35.3719 21.5522 35.1741 21.5551 34.9807 21.5842C31.8555 22.0438 30.0449 24.5582 29.6465 26.8632Z" fill="url(#paint3_linear_1_100)"/>
<path opacity="0.364" d="M30.4813 26.864C30.2966 27.9358 30.458 28.9538 30.8725 29.8293C31.4236 30.9956 31.3567 32.3815 30.4682 33.3166C29.6407 34.1862 29.1288 35.3555 29.1157 36.6497C29.1157 36.6948 29.1157 36.7414 29.1157 36.7864C29.1288 37.4743 29.2801 38.1331 29.5433 38.7322C30.0421 39.8651 29.869 41.1885 29.0372 42.1047C28.8947 42.2617 28.7623 42.4319 28.6416 42.6166C28.1239 43.4106 27.8331 44.3966 27.852 45.4073C27.8607 45.8334 27.9247 46.2478 28.0425 46.6361C28.1283 46.9197 28.249 47.2047 28.39 47.4738C28.6271 47.9231 28.8205 48.3623 28.899 48.7099C28.9543 48.9542 28.9834 49.3236 28.6722 49.6493C28.5297 49.7977 28.3988 49.9591 28.2563 50.1133C27.708 50.7066 27.4244 51.4701 27.5059 52.411C27.6542 54.0965 29.3455 55.43 31.0368 55.4824C31.0542 55.4824 31.1241 55.4838 31.1415 55.4838H35.9944C38.3619 55.4838 39.9965 54.159 40.1288 52.3557C40.2059 51.3159 39.8103 50.3663 39.137 49.6988C40.7294 48.8771 41.8288 47.2367 41.8288 45.3215C41.8288 43.6883 41.0305 42.2486 39.8089 41.3484C39.7987 41.3237 39.8176 41.283 39.8612 41.2641C41.666 40.5282 42.9428 38.7686 42.9428 36.6992C42.9428 34.9454 42.0208 33.4184 40.6436 32.5415C40.6305 32.5182 40.6523 32.4746 40.7032 32.4586C42.9617 31.7823 44.5512 29.5559 44.1789 27.0007C43.8212 24.5445 45.2303 21.5109 42.7479 21.5109L36.1645 21.7363C35.9725 21.7305 35.7806 21.7363 35.5944 21.764C32.494 22.2119 30.8797 24.562 30.4813 26.864Z" fill="url(#paint4_linear_1_100)"/>
<path opacity="0.455" d="M31.3145 26.8643C31.1298 27.9361 31.2912 28.9541 31.7057 29.8296C32.2568 30.9959 32.19 32.3818 31.3014 33.3169C30.4768 34.1836 29.9649 35.3485 29.9504 36.6369C29.9504 36.682 29.9504 36.7271 29.9504 36.7722C29.9606 37.4572 30.1089 38.1159 30.3678 38.7151C30.8608 39.8581 30.6819 41.1801 29.8384 42.0948C29.6944 42.2504 29.5607 42.422 29.437 42.611C28.9164 43.4109 28.6256 44.4143 28.6503 45.4279C28.6605 45.8569 28.7274 46.2743 28.851 46.6641C28.9411 46.9491 29.0662 47.237 29.2145 47.509C29.4618 47.9627 29.6857 48.3961 29.7948 48.7204C29.869 48.94 29.9359 49.3224 29.5781 49.6467C29.424 49.7878 29.2829 49.9434 29.1346 50.0917C28.5616 50.672 28.2635 51.4224 28.3376 52.3793C28.4729 54.0749 30.1569 55.423 31.8569 55.4783C31.8802 55.4798 31.9456 55.4798 31.9675 55.4798H36.829C39.1966 55.4798 40.8312 54.1549 40.9635 52.3517C41.0406 51.3119 40.645 50.3622 39.9717 49.6947C41.5641 48.8731 42.6635 47.2327 42.6635 45.3174C42.6635 43.6799 41.8608 42.2373 40.6348 41.3386C40.6319 41.3153 40.6537 41.2775 40.6974 41.26C42.5006 40.5227 43.7775 38.7645 43.7775 36.6966C43.7775 34.9384 42.8511 33.4085 41.4681 32.533C41.4638 32.5112 41.4885 32.472 41.5379 32.4574C43.7964 31.7812 45.3844 29.5547 45.0121 26.9996C44.6544 24.5433 46.0592 21.5185 43.5768 21.5185L36.7607 21.9082C36.5745 21.9053 36.3884 21.9126 36.2095 21.9388C33.1338 22.3809 31.713 24.5637 31.3145 26.8643Z" fill="url(#paint5_linear_1_100)"/>
<path opacity="0.545" d="M32.1492 26.8638C31.9645 27.9356 32.126 28.9536 32.5404 29.829C33.0916 30.9953 33.0247 32.3812 32.1361 33.3163C31.313 34.1802 30.8026 35.3407 30.7851 36.6248C30.7851 36.6698 30.7851 36.7149 30.7851 36.76C30.7939 37.4421 30.9378 38.1008 31.1923 38.7C31.6795 39.8518 31.4948 41.1751 30.6397 42.087C30.4928 42.2426 30.3576 42.4156 30.2325 42.6061C29.709 43.4118 29.4196 44.4312 29.4487 45.4492C29.4618 45.8811 29.5316 46.2999 29.6595 46.6911C29.7541 46.9762 29.885 47.2685 30.0391 47.5433C30.2965 48.0014 30.5481 48.429 30.6921 48.73C30.7851 48.9263 30.8898 49.3219 30.4856 49.6447C30.3198 49.7785 30.1685 49.9283 30.0144 50.0723C29.4152 50.638 29.104 51.3767 29.1724 52.3496C29.2945 54.0555 30.9713 55.4181 32.6786 55.4778C32.7062 55.4792 32.7687 55.4792 32.7964 55.4792H37.6652C40.0328 55.4792 41.6673 54.1544 41.7997 52.3511C41.8768 51.3113 41.4812 50.3617 40.8079 49.6942C42.4003 48.8725 43.4997 47.2321 43.4997 45.3169C43.4997 43.6765 42.694 42.2309 41.4637 41.3322C41.4681 41.3104 41.4928 41.2755 41.5365 41.258C43.3383 40.5207 44.6151 38.7625 44.6151 36.6946C44.6151 34.932 43.6844 33.3992 42.2956 32.5238C42.2999 32.5034 42.3276 32.4685 42.3756 32.4539C44.634 31.7777 46.2221 29.5513 45.8498 26.9961C45.492 24.5399 46.891 21.5252 44.4086 21.5252L37.3613 22.0807C37.181 22.0807 37.0021 22.0895 36.829 22.1142C33.7722 22.549 32.5462 24.5661 32.1492 26.8638Z" fill="url(#paint6_linear_1_100)"/>
<path opacity="0.636" d="M32.984 26.8635C32.7993 27.9353 32.9607 28.9532 33.3752 29.8287C33.9263 30.995 33.8594 32.3809 32.9709 33.316C32.1507 34.1769 31.6402 35.3331 31.6199 36.6128C31.6199 36.6579 31.6184 36.7015 31.6199 36.7466C31.6271 37.4243 31.7667 38.0831 32.0169 38.6837C32.4982 39.8442 32.3063 41.169 31.441 42.0794C31.2927 42.235 31.1545 42.4095 31.028 42.6029C30.5015 43.4144 30.2121 44.4498 30.2456 45.4707C30.2601 45.9055 30.3329 46.3273 30.4666 46.7184C30.5641 47.0049 30.7022 47.3016 30.8622 47.5779C31.1298 48.0404 31.409 48.4636 31.5864 48.7399C31.6969 48.9129 31.8424 49.3216 31.3915 49.643C31.2141 49.7695 31.0513 49.912 30.8927 50.0531C30.2689 50.6042 29.9431 51.3299 30.0042 52.3202C30.1133 54.0363 31.7813 55.4135 33.4988 55.476C33.5308 55.4774 33.5904 55.4774 33.6224 55.4774H38.5C40.8675 55.4774 42.5021 54.1526 42.6344 52.3493C42.7115 51.3095 42.3159 50.3599 41.6426 49.6924C43.235 48.8707 44.3344 47.2303 44.3344 45.3151C44.3344 43.6718 43.5244 42.2233 42.2898 41.3246C42.3014 41.3042 42.329 41.2737 42.3726 41.2563C44.1745 40.519 45.4484 38.7608 45.4484 36.6943C45.4484 34.9273 44.5133 33.3916 43.1187 32.5176C43.1303 32.4987 43.1623 32.4682 43.2103 32.4536C45.4688 31.776 47.0568 29.5509 46.6831 26.9958C46.3253 24.5396 47.7185 21.5336 45.2361 21.5336L37.9561 22.2535C37.7816 22.2564 37.6085 22.2666 37.4427 22.2913C34.4106 22.7159 33.3795 24.5687 32.984 26.8635Z" fill="url(#paint7_linear_1_100)"/>
<path opacity="0.727" d="M33.8173 26.8645C33.6326 27.9363 33.7941 28.9543 34.2085 29.8298C34.7597 30.9961 34.6928 32.382 33.8042 33.3171C32.987 34.1751 32.4765 35.3268 32.4532 36.6022C32.4518 36.6459 32.4518 36.6909 32.4532 36.736C32.4591 37.4108 32.5943 38.0696 32.8401 38.6702C33.3156 39.8394 33.1178 41.1642 32.2409 42.0731C32.0911 42.2287 31.9501 42.4033 31.8221 42.601C31.2927 43.4183 31.0033 44.4698 31.0426 45.495C31.0586 45.9313 31.1357 46.3574 31.2738 46.75C31.3756 47.038 31.5196 47.3375 31.6854 47.6182C31.9632 48.085 32.2671 48.5039 32.4809 48.7555C32.6088 48.9052 32.795 49.3299 32.2962 49.6469C32.1071 49.7676 31.9341 49.9029 31.7697 50.0396C31.1197 50.5747 30.7808 51.2902 30.8361 52.298C30.9321 54.0242 32.5928 55.4159 34.3176 55.4828C34.354 55.4843 34.4121 55.4857 34.4485 55.4857H39.3333C41.7009 55.4857 43.3354 54.1609 43.4678 52.3576C43.5449 51.3179 43.1493 50.3682 42.476 49.7007C44.0684 48.8791 45.1678 47.2387 45.1678 45.3234C45.1678 43.6757 44.3549 42.2244 43.1159 41.3271C43.1348 41.3082 43.1653 41.2806 43.2075 41.2631C45.0078 40.5258 46.2818 38.7676 46.2818 36.7011C46.2818 34.9298 45.3423 33.3898 43.9419 32.5187C43.9622 32.5012 43.9971 32.475 44.0437 32.462C46.3007 31.7843 47.8887 29.5593 47.5164 27.0041C47.1587 24.5479 48.5475 21.5521 46.0651 21.5521L38.5538 22.4363C38.3852 22.4421 38.2194 22.4538 38.0594 22.477C35.0491 22.8857 34.2143 24.5726 33.8173 26.8645Z" fill="url(#paint8_linear_1_100)"/>
<path opacity="0.818" d="M34.652 26.8633C34.4674 27.9351 34.6288 28.9531 35.0432 29.8286C35.5944 30.9949 35.5275 32.3808 34.639 33.3159C33.8246 34.171 33.3156 35.3184 33.288 36.5894C33.2865 36.633 33.2865 36.6781 33.2865 36.7217C33.2894 37.3936 33.4232 38.0524 33.6632 38.653C34.1343 39.8309 33.9278 41.1572 33.0407 42.0632C32.888 42.2188 32.7455 42.3948 32.6161 42.594C32.0838 43.4171 31.7959 44.4846 31.8395 45.5142C31.8584 45.9534 31.9369 46.3809 32.0809 46.775C32.1871 47.0644 32.3354 47.3669 32.5099 47.6505C32.7979 48.1217 33.1251 48.539 33.3781 48.763C33.5221 48.891 33.7504 49.3302 33.2036 49.6414C33.0029 49.7563 32.8197 49.8842 32.6495 50.0151C31.9733 50.5372 31.6228 51.2381 31.6694 52.2634C31.7537 53.9998 33.4043 55.406 35.1392 55.4758C35.1799 55.4773 35.2352 55.4788 35.2759 55.4788H40.1695C42.537 55.4788 44.1716 54.1539 44.304 52.3506C44.381 51.3108 43.9855 50.3612 43.3121 49.6937C44.9046 48.8721 46.004 47.2317 46.004 45.3164C46.004 43.6658 45.1881 42.2116 43.9433 41.3143C43.9695 41.2968 44.0044 41.2736 44.0451 41.2561C45.844 40.5174 47.1179 38.7606 47.1179 36.6956C47.1179 34.9199 46.1741 33.3769 44.7679 32.5058C44.7969 32.4898 44.8348 32.4695 44.8813 32.4549C47.1383 31.7773 48.7263 29.5522 48.3541 26.9971C47.9963 24.5409 49.3793 21.5538 46.8969 21.5538L39.153 22.6038C38.9901 22.6125 38.8301 22.6256 38.6774 22.6474C35.6875 23.0532 35.0476 24.5743 34.652 26.8633Z" fill="url(#paint9_linear_1_100)"/>
<path opacity="0.909" d="M35.4868 26.8639C35.3021 27.9357 35.4635 28.9536 35.878 29.8291C36.4291 30.9954 36.3622 32.3813 35.4737 33.3164C34.6608 34.1701 34.1532 35.3117 34.1227 36.5783C34.1212 36.6219 34.1212 36.6656 34.1212 36.7092C34.1227 37.3782 34.2521 38.0355 34.4877 38.6375C34.9531 39.8242 34.7407 41.152 33.842 42.055C33.6879 42.2107 33.5439 42.3866 33.413 42.5902C32.8778 43.4177 32.5899 44.5026 32.6379 45.5365C32.6582 45.9786 32.7411 46.4091 32.8895 46.8032C32.9985 47.0926 33.1541 47.4009 33.3345 47.6859C33.6326 48.1615 33.9845 48.5788 34.2739 48.7737C34.4339 48.8813 34.7058 49.3351 34.1096 49.6404C33.8973 49.7495 33.7039 49.8688 33.5279 49.9967C32.8269 50.5043 32.4619 51.1936 32.5026 52.2348C32.5739 53.9814 34.2172 55.4051 35.9609 55.4749C36.0059 55.4764 36.0583 55.4778 36.1034 55.4778H41.0042C43.3718 55.4778 45.0063 54.153 45.1387 52.3497C45.2158 51.3099 44.8202 50.3603 44.1469 49.6928C45.7393 48.8711 46.8387 47.2307 46.8387 45.3155C46.8387 43.6605 46.0185 42.2048 44.7708 41.3076C44.8042 41.2901 44.842 41.2712 44.8827 41.2537C46.6816 40.515 47.9541 38.7582 47.9541 36.6932C47.9541 34.9132 47.0045 33.3673 45.5939 32.4977C45.6302 32.4846 45.6724 32.4671 45.7175 32.4526C47.9745 31.7749 49.5611 29.5499 49.1888 26.9962C48.831 24.54 50.2097 21.5631 47.7273 21.5631L39.7507 22.7774C39.5921 22.7891 39.4409 22.8036 39.294 22.824C36.3273 23.2224 35.8809 24.5778 35.4868 26.8639Z" fill="url(#paint10_linear_1_100)"/>
<path opacity="0.87" d="M48.7874 36.697C48.7874 34.9126 47.8334 33.3638 46.417 32.4942C48.7453 31.8659 50.4017 29.6031 50.0221 26.9985C49.6644 24.5423 51.0372 21.5742 48.5548 21.5742L40.3469 22.9528C36.9891 23.2771 36.7346 24.471 36.3215 26.8633C36.1369 27.9351 36.2983 28.9531 36.7127 29.8285C37.2639 30.9948 37.197 32.3807 36.3085 33.3158C35.4708 34.1957 34.956 35.3823 34.956 36.6955C34.956 37.3616 35.0811 38.0189 35.3123 38.6224C35.7718 39.8178 35.5537 41.1455 34.6433 42.0472C34.4863 42.2028 34.3408 42.3802 34.2085 42.5867C33.4392 43.7777 33.1847 45.5127 33.6981 46.8331C33.9991 47.6083 34.6462 48.5259 35.1698 48.7862C35.3472 48.8735 35.6599 49.3432 35.0156 49.6413C33.8958 50.1576 33.2909 50.8847 33.3345 52.2081C33.3941 54.0143 35.1218 55.4802 36.9294 55.4802H41.839C44.2065 55.4802 45.8411 54.1553 45.9734 52.352C46.0505 51.3123 45.655 50.3626 44.9816 49.6951C46.5741 48.8735 47.6735 47.2331 47.6735 45.3178C47.6735 43.66 46.8504 42.1999 45.5968 41.3041C47.4582 40.5958 48.7874 38.8071 48.7874 36.697Z" fill="url(#paint11_linear_1_100)"/>
</g>
<g opacity="0.24">
<path opacity="0.091" d="M4.47766 45.5587H7.85299C10.6975 45.5587 13.3646 46.8472 15.2072 49.014C16.2077 50.1905 17.4162 51.1416 18.7817 51.6855C20.5748 52.3995 25.8523 52.686 31.0266 52.7878C31.5341 52.798 32.0416 52.8053 32.5448 52.8125C35.8024 52.8547 38.8548 52.8314 40.6843 52.8096C42.2447 52.7922 43.2511 52.734 43.3223 52.6744C43.7571 52.6453 44.1716 52.5202 44.5657 52.3515C44.6879 51.9167 44.6922 51.4455 44.6559 50.938C44.6355 50.6471 44.6631 49.8487 44.6777 48.7144C42.7872 48.7377 40.0168 48.7551 37.0646 48.7202C35.6467 48.7042 34.1867 48.6752 32.76 48.6301C29.328 48.5196 26.1025 48.3087 24.1712 47.9248C23.5939 47.8084 23.1154 47.6746 22.7577 47.5234C21.9215 47.17 21.1449 46.6668 20.441 46.0531C19.9989 45.6663 19.5787 45.2446 19.1831 44.7967C17.819 43.2508 16.0274 42.1746 14.0568 41.7253C13.3763 41.5522 12.447 41.462 11.7286 41.462H10.8415C10.8051 41.462 8.5074 41.385 8.48123 41.2526C7.67266 41.049 6.99934 37.2345 6.80447 32.1141C6.7652 31.0408 6.7463 29.9211 6.75066 28.7737C6.75939 26.8977 6.83646 25.1526 6.95571 23.5878C6.64305 23.5849 6.32747 23.5703 6.01045 23.5369C6.01481 23.5165 5.47528 23.4976 5.4811 23.4802H4.90376C4.87613 23.4802 3.35061 23.5252 3.3288 23.6067C2.91579 25.8433 2.64966 29.2681 2.64529 33.1161C2.64529 33.4011 2.64675 33.6832 2.6482 33.9639C2.70637 40.4339 3.50331 45.5587 4.47766 45.5587Z" fill="url(#paint12_linear_1_100)"/>
<path opacity="0.182" d="M4.21297 45.8232H7.5883C10.4328 45.8232 13.0999 47.1117 14.9425 49.2785C15.943 50.455 17.1515 51.4061 18.517 51.95C20.3261 52.6699 25.6822 52.9549 30.8986 53.0552C31.4134 53.0654 31.9267 53.0727 32.4343 53.08C35.8547 53.1221 39.0119 53.0901 40.6581 53.0712C42.1633 53.0552 43.1623 52.9622 43.3019 52.8444C43.7309 52.7862 44.1367 52.635 44.5192 52.4415C44.5613 52.094 44.4508 51.713 44.3766 51.2418C44.3359 50.9829 44.2836 50.2631 44.1367 49.2451C42.2331 49.2684 39.4438 49.2858 36.4757 49.2509C35.0461 49.2334 33.5759 49.2044 32.1434 49.1578C28.6547 49.0429 25.3913 48.8248 23.511 48.422C22.9438 48.2984 22.4683 48.1529 22.1018 47.9901C21.2685 47.6178 20.4948 47.1001 19.7968 46.4704C19.3576 46.0733 18.933 45.6487 18.5272 45.2066C17.1311 43.6796 15.3075 42.634 13.3137 42.2297C12.7015 42.0741 11.618 41.9927 10.9724 41.9927H10.0824C10.0096 41.9927 7.90533 41.8386 7.85152 41.5753C7.07785 41.1681 6.44089 37.3667 6.26493 32.3437C6.23002 31.253 6.21548 30.1245 6.22421 28.9786C6.24166 27.0764 6.32891 25.3167 6.46125 23.7607C6.18639 23.7141 5.91154 23.6618 5.63232 23.5964C5.64105 23.5556 5.16114 23.5193 5.17132 23.4844H4.59544C4.54018 23.4844 3.13973 23.576 3.09319 23.736C2.66564 25.9421 2.38788 29.3988 2.37915 33.3021C2.37915 33.5871 2.37915 33.8721 2.38206 34.1557C2.43441 40.6577 3.23425 45.8232 4.21297 45.8232Z" fill="url(#paint13_linear_1_100)"/>
<path opacity="0.273" d="M3.94833 46.0874H7.32366C10.1682 46.0874 12.8353 47.3759 14.6778 49.5428C15.6784 50.7193 16.8869 51.6703 18.2524 52.2142C20.0775 52.9414 25.5135 53.2249 30.7706 53.3209C31.2913 53.3311 31.8104 53.3384 32.3252 53.3442C35.9071 53.3849 39.1704 53.3471 40.6334 53.3296C42.0819 53.3166 43.0766 53.1871 43.2845 53.0097C43.7077 52.9224 44.1047 52.7465 44.4756 52.5269C44.4392 52.268 44.32 51.9437 44.1004 51.5409C44.1004 51.3082 43.9069 50.6742 43.5986 49.7696C41.6834 49.7929 38.8752 49.8103 35.8896 49.774C34.4499 49.7565 32.9695 49.726 31.5283 49.6795C27.9828 49.5617 24.6817 49.3377 22.8537 48.9131C22.2967 48.7836 21.8226 48.6266 21.4489 48.4506C20.6185 48.0609 19.8477 47.5272 19.154 46.8815C18.7178 46.4743 18.2888 46.0482 17.8743 45.6104C16.4448 44.1038 14.592 43.0873 12.575 42.7281C12.0311 42.59 10.795 42.5172 10.2205 42.5172H9.32762C9.21856 42.5172 7.30766 42.2846 7.22622 41.8905C6.486 41.2797 5.88685 37.4928 5.73125 32.5672C5.69925 31.4591 5.69053 30.3218 5.70361 29.1773C5.72979 27.249 5.82723 25.4733 5.9712 23.9275C5.73561 23.8388 5.49857 23.7471 5.26007 23.6497C5.27316 23.5886 4.85288 23.5334 4.86596 23.481H4.28862C4.20573 23.481 2.92889 23.6177 2.85909 23.8591C2.41845 26.0347 2.1276 29.5249 2.11451 33.4819C2.11305 33.7684 2.11451 34.0549 2.11596 34.34C2.16395 40.8797 2.9667 46.0874 3.94833 46.0874Z" fill="url(#paint14_linear_1_100)"/>
<path opacity="0.364" d="M3.6851 46.3521H7.06044C9.90496 46.3521 12.5721 47.6406 14.4146 49.8074C15.4151 50.9839 16.6236 51.935 17.9892 52.4789C19.8303 53.2119 25.3448 53.494 30.6427 53.5885C31.1706 53.5972 31.6955 53.606 32.2147 53.6118C35.9594 53.6525 39.326 53.6074 40.6072 53.5929C41.999 53.5812 42.9879 53.4169 43.2656 53.1813C43.683 53.065 44.0727 52.8628 44.4305 52.6185C44.3156 52.4469 44.1164 52.1997 43.8226 51.8463C43.8226 51.6427 43.5288 51.0901 43.0606 50.3019C41.1337 50.3252 38.3051 50.3426 35.3036 50.3062C33.8537 50.2888 32.3616 50.2583 30.9132 50.2088C27.3095 50.0867 23.972 49.854 22.1963 49.4119C21.6495 49.2752 21.1784 49.1065 20.7959 48.9174C19.9684 48.5088 19.2006 47.9591 18.5127 47.2988C18.0779 46.8815 17.646 46.4525 17.2213 46.0205C15.7598 44.5328 13.8765 43.5469 11.8362 43.2327C11.3592 43.112 9.9704 43.048 9.46723 43.048H8.57432C8.43034 43.048 6.71141 42.7383 6.60234 42.2119C5.89703 41.396 5.33423 37.6251 5.19753 32.7955C5.1699 31.6699 5.16554 30.524 5.18444 29.3795C5.21935 27.425 5.32696 25.6348 5.48257 24.0962C5.28479 23.9638 5.08701 23.8344 4.88777 23.705C4.90523 23.625 4.54312 23.5494 4.56202 23.481H3.98032C3.8698 23.481 2.71657 23.6628 2.6235 23.9842C2.16977 26.1292 1.86583 29.6529 1.84983 33.6637C1.84838 33.9517 1.84838 34.2396 1.85129 34.5261C1.89346 41.1037 2.69766 46.3521 3.6851 46.3521Z" fill="url(#paint15_linear_1_100)"/>
<path opacity="0.455" d="M3.42046 46.6178H6.79579C9.64032 46.6178 12.3074 47.9063 14.15 50.0732C15.1505 51.2497 16.359 52.2007 17.7245 52.7446C19.5816 53.4834 25.1761 53.7641 30.5147 53.8557C31.0484 53.8644 31.5807 53.8717 32.1057 53.8775C36.0118 53.9168 39.4846 53.8659 40.5825 53.8528C41.919 53.8426 42.9006 53.6434 43.2467 53.3482C43.6583 53.2027 44.0393 52.9759 44.3854 52.7068C44.1906 52.6225 43.9113 52.4509 43.5463 52.1484C43.5463 51.9739 43.1522 51.5042 42.5225 50.8308C40.5825 50.8541 37.7351 50.8716 34.7161 50.8337C33.2545 50.8148 31.7538 50.7843 30.2966 50.7348C26.6362 50.6083 23.2609 50.3684 21.5361 49.9074C20.9995 49.7634 20.5298 49.5845 20.1401 49.3824C19.3155 48.9563 18.5506 48.3906 17.8685 47.7158C17.4366 47.2883 17.0018 46.8578 16.5669 46.4302C15.072 44.9614 13.1582 44.006 11.0946 43.737C10.6859 43.6337 9.14296 43.5784 8.7125 43.5784H7.81523C7.6349 43.5784 6.10938 43.1916 5.97268 42.5343C5.30081 41.5149 4.7671 37.7571 4.65949 33.0264C4.63331 31.8833 4.63622 30.7286 4.65949 29.5856C4.70312 27.6034 4.82091 25.7987 4.9896 24.2703C4.82964 24.0943 4.67112 23.9271 4.51261 23.7642C4.53442 23.6638 4.23194 23.5693 4.2552 23.4835H3.67496C3.5368 23.4835 2.50719 23.7104 2.3923 24.1132C1.92403 26.2263 1.60991 29.7834 1.5881 33.8495C1.58664 34.1389 1.58664 34.4283 1.5881 34.7177C1.623 41.3287 2.43011 46.6178 3.42046 46.6178Z" fill="url(#paint16_linear_1_100)"/>
<path opacity="0.545" d="M3.15574 46.88H6.53107C9.37559 46.88 12.0427 48.1685 13.8852 50.3353C14.8858 51.5118 16.0943 52.4629 17.4598 53.0068C19.3314 53.7528 25.0074 54.032 30.3867 54.1208C30.9277 54.1295 31.4658 54.1368 31.9951 54.1426C36.0627 54.1818 39.6416 54.1208 40.5578 54.112C41.8375 54.1004 42.7653 53.8037 43.2292 53.5158C43.6044 53.2831 44.0087 53.0882 44.3418 52.7945C44.0683 52.7988 43.7091 52.7014 43.27 52.4498C43.27 52.3044 42.7755 51.9161 41.9859 51.3591C40.0342 51.3824 37.1664 51.3998 34.1314 51.362C32.6597 51.3431 31.1487 51.3111 29.6828 51.2602C25.9658 51.1294 22.5541 50.8807 20.8802 50.4008C20.3538 50.2495 19.887 50.059 19.49 49.8452C18.6668 49.4017 17.9063 48.82 17.2286 48.1292C16.7996 47.6915 16.3604 47.2581 15.9168 46.8364C14.3899 45.3865 12.4455 44.4616 10.3587 44.2362C10.0184 44.1504 8.32126 44.1053 7.96351 44.1053H7.06478C6.8481 44.1053 5.51599 43.6414 5.35166 42.8517C4.7147 41.6287 4.21734 37.8854 4.12863 33.2507C4.10682 32.0902 4.11264 30.9268 4.14172 29.7838C4.19408 27.7754 4.3235 25.9562 4.50238 24.4365C4.38167 24.2183 4.26097 24.0118 4.14172 23.8169C4.16935 23.6962 3.92504 23.5843 3.95267 23.481H3.36806C3.20227 23.481 2.29627 23.7544 2.15812 24.2372C1.67676 26.3197 1.34955 29.9103 1.32337 34.0317C1.32192 34.3225 1.32192 34.6134 1.32337 34.9042C1.35246 41.5502 2.16248 46.88 3.15574 46.88Z" fill="url(#paint17_linear_1_100)"/>
<path opacity="0.636" d="M2.89106 47.1453H6.26639C9.11091 47.1453 11.778 48.4338 13.6206 50.6006C14.6211 51.7771 15.8296 52.7282 17.1951 53.2721C19.0828 54.0239 24.8372 54.3017 30.2587 54.3889C30.8055 54.3977 31.3494 54.4049 31.886 54.4093C36.1165 54.4486 39.8001 54.3802 40.533 54.3729C41.7575 54.3628 42.681 54.0385 43.2118 53.6836C43.5855 53.4335 43.9767 53.2008 44.2981 52.8823C43.9462 52.9739 43.5055 52.9536 42.9936 52.7514C42.9936 52.6351 42.3989 52.3297 41.4478 51.8876C39.4845 51.9109 36.5964 51.9283 33.5453 51.8891C32.062 51.8702 30.5408 51.8367 29.0691 51.7844C25.2953 51.6506 21.8458 51.3917 20.2229 50.8944C19.7066 50.7358 19.2413 50.5352 18.837 50.3083C18.0168 49.8487 17.2591 49.2481 16.5872 48.5428C16.1612 48.0949 15.7176 47.6601 15.2639 47.2442C13.7049 45.8132 11.73 44.9188 9.6199 44.7385C9.34796 44.6701 7.49814 44.6338 7.2102 44.6338H6.30856C6.05552 44.6338 4.91538 44.0913 4.72487 43.1708C4.12281 41.7442 3.67054 38.0155 3.59346 33.4767C3.57747 32.2973 3.58619 31.1266 3.61964 29.9851C3.68072 27.9505 3.82033 26.1167 4.01083 24.6058C3.92794 24.344 3.8465 24.0997 3.76797 23.8728C3.79997 23.7317 3.61382 23.6009 3.64727 23.4802H3.06121C2.86779 23.4802 2.0854 23.7986 1.92398 24.3614C1.42807 26.4134 1.08923 30.0374 1.06015 34.2126C1.05869 34.5049 1.05724 34.7972 1.05869 35.0909C1.08196 41.7747 1.89344 47.1453 2.89106 47.1453Z" fill="url(#paint18_linear_1_100)"/>
<path opacity="0.727" d="M2.62639 47.4104H6.00172C8.84625 47.4104 11.5134 48.6989 13.3559 50.8657C14.3564 52.0422 15.5649 52.9933 16.9305 53.5372C18.8341 54.2949 24.6686 54.5712 30.1293 54.6555C30.6834 54.6642 31.2331 54.6701 31.7741 54.6759C36.1659 54.7137 39.9557 54.6395 40.5054 54.6352C41.6732 54.6264 42.5981 54.2774 43.19 53.8542C43.5623 53.5881 43.9404 53.3176 44.2501 52.9729C43.8197 53.1518 43.2991 53.2071 42.713 53.0558C42.713 52.9686 42.0179 52.7446 40.9068 52.4174C38.9305 52.4407 36.0234 52.4581 32.9564 52.4174C31.4629 52.3971 29.9315 52.3636 28.4511 52.3113C24.6191 52.1731 21.1333 51.9055 19.5627 51.3907C19.0566 51.2249 18.5941 51.0141 18.1811 50.7741C17.3624 50.2971 16.6091 49.6805 15.9416 48.9592C15.5184 48.5011 15.0719 48.0634 14.608 47.6533C13.0156 46.2412 11.0102 45.3774 8.87824 45.2421C8.67465 45.1898 6.67068 45.1636 6.45545 45.1636H5.55381C5.26441 45.1636 4.31769 44.5441 4.09955 43.4926C3.53094 41.8624 3.11648 38.1468 3.0583 33.7069C3.04667 32.5101 3.05976 31.3292 3.09757 30.1906C3.16737 28.1299 3.31716 26.2801 3.5193 24.7778C3.47422 24.4739 3.43205 24.1903 3.39278 23.9314C3.42914 23.77 3.30262 23.6202 3.34043 23.4835H2.75436C2.53332 23.4835 1.87454 23.8471 1.68985 24.4913C1.18086 26.5127 0.828929 30.1702 0.795481 34.3992C0.792573 34.6915 0.792572 34.9867 0.792572 35.2819C0.811477 41.9991 1.62586 47.4104 2.62639 47.4104Z" fill="url(#paint19_linear_1_100)"/>
<path opacity="0.818" d="M2.36314 47.6746H5.73847C8.58299 47.6746 11.2501 48.9631 13.0926 51.1299C14.0932 52.3064 15.3017 53.2575 16.6672 53.8014C18.5868 54.5664 24.4998 54.8398 30.0027 54.9227C30.5626 54.9314 31.1196 54.9372 31.6664 54.9416C36.2211 54.9794 40.1156 54.8979 40.4821 54.895C41.5932 54.8863 42.521 54.5169 43.174 54.021C43.5477 53.7374 43.9113 53.4291 44.2094 53.0612C43.6989 53.3288 43.0998 53.4582 42.4396 53.3579C42.4381 53.2997 41.6441 53.1586 40.3716 52.9463C38.3836 52.9696 35.4577 52.987 32.3732 52.9463C30.8695 52.926 29.328 52.8925 27.8388 52.8372C23.9501 52.6947 20.4279 52.4184 18.9082 51.8862C18.4123 51.7131 17.9513 51.4921 17.531 51.239C16.7137 50.746 15.9648 50.1105 15.3031 49.3747C14.8814 48.9064 14.432 48.4672 13.9594 48.0615C12.335 46.6683 10.299 45.835 8.14235 45.7448C8.00565 45.7099 5.84899 45.6925 5.70647 45.6925H4.79902C4.47326 45.6925 3.71996 44.9959 3.47419 43.8121C2.94048 41.9783 2.56237 38.2772 2.5231 33.9334C2.51583 32.7191 2.53328 31.5295 2.57546 30.3908C2.65399 28.3039 2.81396 26.4396 3.02919 24.9461C3.02337 24.5985 3.02046 24.2771 3.02046 23.9848C3.06118 23.803 2.99428 23.6358 3.03646 23.4802H2.44748C2.1988 23.4802 1.66364 23.8888 1.45713 24.613C0.933602 26.6039 0.570037 30.2934 0.532226 34.5776C0.529318 34.8714 0.527864 35.168 0.529318 35.4661C0.540952 42.2226 1.35679 47.6746 2.36314 47.6746Z" fill="url(#paint20_linear_1_100)"/>
<path opacity="0.909" d="M2.09852 47.9387H5.47385C8.31837 47.9387 10.9855 49.2272 12.828 51.394C13.8286 52.5705 15.037 53.5216 16.4026 54.0655C18.3382 54.8363 24.3312 55.1097 29.8748 55.1882C30.442 55.1969 31.0033 55.2027 31.5559 55.2071C36.2721 55.2434 40.2713 55.1562 40.456 55.1547C41.5118 55.1475 42.4454 54.7606 43.1551 54.1877C43.5288 53.8852 43.8779 53.542 44.1644 53.1479C43.5754 53.5027 42.8948 53.7092 42.1633 53.6583C42.1618 53.6292 41.2675 53.5696 39.835 53.4736C37.8354 53.4969 34.8891 53.5143 31.7886 53.4722C30.2733 53.4518 28.7216 53.4169 27.2252 53.3616C23.2798 53.2162 19.7212 52.9268 18.251 52.38C17.7652 52.1982 17.3057 51.9699 16.8781 51.7009C16.0623 51.1933 15.3177 50.5389 14.6604 49.7885C14.2416 49.3101 13.7878 48.868 13.305 48.4681C11.6472 47.0938 9.58067 46.291 7.40219 46.246C7.33384 46.2285 5.02448 46.2198 4.95177 46.2198H4.04286C3.6822 46.2198 3.12086 45.4461 2.84746 44.13C2.34719 42.0911 2.0069 38.4061 1.98799 34.1596C1.98363 32.9279 2.0069 31.7296 2.05343 30.5923C2.14069 28.4778 2.31084 26.5989 2.5377 25.1156C2.5697 24.7244 2.60605 24.3652 2.64532 24.0409C2.6904 23.8402 2.68167 23.6526 2.72966 23.481H2.14069C1.86438 23.481 1.45283 23.9362 1.22305 24.7404C0.686433 26.7007 0.311235 30.4236 0.267608 34.7617C0.264699 35.0569 0.263245 35.355 0.263245 35.6546C0.270516 42.4445 1.08926 47.9387 2.09852 47.9387Z" fill="url(#paint21_linear_1_100)"/>
<path opacity="0.24" d="M41.8855 53.9614C41.8841 53.9614 36.7854 54.0778 31.2011 54.0007C25.6167 53.9236 19.5438 53.6517 17.5921 52.8751C16.2266 52.3312 15.0181 51.3801 14.0176 50.2036C12.175 48.0383 9.50648 46.7483 6.66341 46.7483H3.28807C2.27446 46.7483 1.45426 41.2134 1.45426 34.3872C1.45426 29.6623 1.84836 25.5613 2.4257 23.4802H1.83382C0.820201 23.4802 0 29.0151 0 35.8414C0 42.6677 0.821655 48.2026 1.83382 48.2026H5.20915C8.05368 48.2026 10.7208 49.4911 12.5633 51.6579C13.5639 52.8344 14.7723 53.7855 16.1379 54.3294C18.0895 55.1059 24.161 55.3779 29.7468 55.455C35.3326 55.532 40.4298 55.4157 40.4313 55.4157C41.9248 55.4157 43.2932 54.5024 44.1193 53.2372C43.4517 53.6793 42.6912 53.9614 41.8855 53.9614Z" fill="#E5A015"/>
</g>
<path d="M49.5611 50.1917C49.1772 47.3821 46.5886 45.4159 43.779 45.7984C42.6737 45.9497 41.7067 46.4499 40.9534 47.1625L36.64 49.0967C36.4655 49.0865 36.2896 49.0865 36.1107 49.1127C34.4775 49.3526 33.3505 51.0875 33.5934 52.9868C33.8188 54.7537 35.1509 56.0233 36.6502 56L44.794 55.9855C44.9191 55.9782 45.0427 55.9899 45.1692 55.9724C47.9789 55.5899 49.945 53.0014 49.5611 50.1917Z" fill="url(#paint22_radial_1_100)"/>
<path d="M53.2287 42.7325C52.8302 39.4487 49.8432 37.1103 46.5595 37.5088C45.2259 37.6702 44.0625 38.2737 43.1609 39.1361L36.5237 40.8725C34.6113 41.2724 33.2865 43.2996 33.5381 45.5523C33.7838 47.7496 35.4417 49.3435 37.3279 49.3173L47.4728 49.4119C47.6502 49.406 47.8232 49.4235 48.0021 49.4017C51.2887 49.0032 53.6286 46.0176 53.2287 42.7325Z" fill="url(#paint23_radial_1_100)"/>
<path d="M54.9288 34.0836C54.4968 30.8042 51.4865 28.4963 48.2072 28.9282C48.021 28.953 38.0652 32.3559 38.0652 32.3559C36.1107 32.7311 34.7669 34.802 35.0476 37.0837C35.305 39.172 36.8334 40.7136 38.6062 40.8212C38.6062 40.8212 49.5233 40.8386 49.7734 40.8052C53.0528 40.3733 55.3607 37.3644 54.9288 34.0836Z" fill="url(#paint24_radial_1_100)"/>
<path d="M55.2109 26.1292C54.8634 23.2512 52.3068 21.1949 49.4433 21.4145C49.4433 21.4145 49.0609 21.4567 48.9838 21.4698L39.1385 23.0971C37.2508 23.5333 35.9522 25.6493 36.2096 28.0081C36.4597 30.3044 38.0914 31.9826 39.9558 31.9986L49.9232 32.144C50.1167 32.1411 50.3057 32.1556 50.502 32.1324C53.46 31.7761 55.5687 29.0886 55.2109 26.1292Z" fill="url(#paint25_radial_1_100)"/>
<path opacity="0.59" d="M20.8875 37.5884C15.1214 36.4221 9.83519 38.4988 9.08188 42.2246C8.32858 45.9504 12.3918 49.9176 18.1594 51.0825C23.9269 52.2474 29.2117 50.1721 29.965 46.4463C30.7183 42.7205 26.6551 38.7548 20.8875 37.5884Z" fill="url(#paint26_radial_1_100)"/>
<path opacity="0.59" d="M32.5463 19.6962C32.1973 22.3822 31.3523 25.106 30.0464 27.6568C29.2437 29.223 28.262 30.7369 27.1393 32.1083C25.2546 34.4104 22.8842 36.4245 20.1909 37.7406C19.2805 38.1856 18.3265 38.5361 17.3507 38.8022C16.4593 39.0436 15.3104 39.4232 14.3782 39.2894C14.115 39.2879 13.8533 39.2269 13.6351 39.0742C13.4461 38.9404 13.3035 38.7411 13.273 38.5085C13.2701 38.4896 13.2686 38.4692 13.2672 38.4503C13.2425 37.9529 13.718 37.5254 14.3695 37.4992C19.7575 37.2113 25.275 33.039 28.4496 26.841C29.7512 24.2989 30.551 21.5809 30.823 18.9283L32.5463 19.6962Z" fill="url(#paint27_linear_1_100)"/>
<path opacity="0.72" d="M22.3461 32.8888C17.9324 36.6393 12.5604 37.5686 10.3456 34.964C8.13217 32.3594 9.91509 27.207 14.3288 23.4565C18.7424 19.7059 24.1145 18.7767 26.3293 21.3812C28.5441 23.9858 26.7598 29.1383 22.3461 32.8888Z" fill="url(#paint28_radial_1_100)"/>
<path opacity="0.5" d="M45.8353 30.6644C50.594 30.6644 54.4518 28.9846 54.4518 26.9124C54.4518 24.8403 50.594 23.1605 45.8353 23.1605C41.0766 23.1605 37.2188 24.8403 37.2188 26.9124C37.2188 28.9846 41.0766 30.6644 45.8353 30.6644Z" fill="url(#paint29_radial_1_100)"/>
<path opacity="0.5" d="M44.4451 40.2233C49.2038 40.2233 53.0615 38.7512 53.0615 36.9352C53.0615 35.1193 49.2038 33.6472 44.4451 33.6472C39.6863 33.6472 35.8286 35.1193 35.8286 36.9352C35.8286 38.7512 39.6863 40.2233 44.4451 40.2233Z" fill="url(#paint30_radial_1_100)"/>
<path opacity="0.5" d="M42.9137 48.7171C47.6724 48.7171 51.5302 47.245 51.5302 45.429C51.5302 43.6131 47.6724 42.1409 42.9137 42.1409C38.1549 42.1409 34.2972 43.6131 34.2972 45.429C34.2972 47.245 38.1549 48.7171 42.9137 48.7171Z" fill="url(#paint31_radial_1_100)"/>
<path opacity="0.5" d="M40.981 54.9283C44.3904 54.9283 47.1543 53.8736 47.1543 52.5724C47.1543 51.2713 44.3904 50.2166 40.981 50.2166C37.5715 50.2166 34.8076 51.2713 34.8076 52.5724C34.8076 53.8736 37.5715 54.9283 40.981 54.9283Z" fill="url(#paint32_radial_1_100)"/>
</g>
<defs>
<radialGradient id="paint0_radial_1_100" cx="0" cy="0" r="1" gradientUnits="userSpaceOnUse" gradientTransform="translate(17.8975 24.5222) scale(32.0838 28.9524)">
<stop stop-color="#FFE16E"/>
<stop offset="0.629" stop-color="#FFD226"/>
<stop offset="0.75" stop-color="#FDCD23"/>
<stop offset="0.899" stop-color="#F6BD1B"/>
<stop offset="0.999" stop-color="#F0AF13"/>
</radialGradient>
<linearGradient id="paint1_linear_1_100" x1="39.1893" y1="36.812" x2="26.5504" y2="40.5232" gradientUnits="userSpaceOnUse">
<stop stop-color="#F4BA22" stop-opacity="0.409"/>
<stop offset="1" stop-color="#FBCE32"/>
</linearGradient>
<linearGradient id="paint2_linear_1_100" x1="41.4435" y1="34.0492" x2="26.3992" y2="43.7171" gradientUnits="userSpaceOnUse">
<stop stop-color="#F2B721" stop-opacity="0.468"/>
<stop offset="1" stop-color="#F9C930"/>
</linearGradient>
<linearGradient id="paint3_linear_1_100" x1="42.0266" y1="30.6341" x2="27.7341" y2="47.1297" gradientUnits="userSpaceOnUse">
<stop stop-color="#F0B320" stop-opacity="0.527"/>
<stop offset="1" stop-color="#F6C32D"/>
</linearGradient>
<linearGradient id="paint4_linear_1_100" x1="40.7265" y1="27.7017" x2="30.5438" y2="49.9998" gradientUnits="userSpaceOnUse">
<stop stop-color="#EEB01F" stop-opacity="0.586"/>
<stop offset="1" stop-color="#F3BE2A"/>
</linearGradient>
<linearGradient id="paint5_linear_1_100" x1="38.3822" y1="26.3728" x2="34.7494" y2="51.6449" gradientUnits="userSpaceOnUse">
<stop stop-color="#ECAC1E" stop-opacity="0.645"/>
<stop offset="1" stop-color="#F0B827"/>
</linearGradient>
<linearGradient id="paint6_linear_1_100" x1="35.9594" y1="26.65" x2="39.5936" y2="51.9206" gradientUnits="userSpaceOnUse">
<stop stop-color="#EAA91C" stop-opacity="0.705"/>
<stop offset="1" stop-color="#EEB325"/>
</linearGradient>
<linearGradient id="paint7_linear_1_100" x1="33.6471" y1="27.3448" x2="44.2821" y2="50.6333" gradientUnits="userSpaceOnUse">
<stop stop-color="#E8A51B" stop-opacity="0.764"/>
<stop offset="1" stop-color="#EBAD22"/>
</linearGradient>
<linearGradient id="paint8_linear_1_100" x1="31.9443" y1="29.4327" x2="47.72" y2="47.6386" gradientUnits="userSpaceOnUse">
<stop stop-color="#E6A21A" stop-opacity="0.823"/>
<stop offset="1" stop-color="#E8A81F"/>
</linearGradient>
<linearGradient id="paint9_linear_1_100" x1="31.617" y1="32.5829" x2="49.1306" y2="43.8389" gradientUnits="userSpaceOnUse">
<stop stop-color="#E49E19" stop-opacity="0.882"/>
<stop offset="1" stop-color="#E5A21C"/>
</linearGradient>
<linearGradient id="paint10_linear_1_100" x1="33.1571" y1="35.9748" x2="48.3642" y2="40.4408" gradientUnits="userSpaceOnUse">
<stop stop-color="#E29B18" stop-opacity="0.941"/>
<stop offset="1" stop-color="#E39D1A"/>
</linearGradient>
<linearGradient id="paint11_linear_1_100" x1="33.3316" y1="38.5279" x2="50.0846" y2="38.5279" gradientUnits="userSpaceOnUse">
<stop stop-color="#E09717"/>
<stop offset="1" stop-color="#E09717"/>
</linearGradient>
<linearGradient id="paint12_linear_1_100" x1="2.64384" y1="38.158" x2="44.6762" y2="38.158" gradientUnits="userSpaceOnUse">
<stop stop-color="#EFAE13"/>
<stop offset="0.519" stop-color="#FCCC24" stop-opacity="0.536"/>
<stop offset="0.999" stop-color="#FCCB23"/>
</linearGradient>
<linearGradient id="paint13_linear_1_100" x1="2.37915" y1="38.2902" x2="44.5308" y2="38.2902" gradientUnits="userSpaceOnUse">
<stop stop-color="#EEAC13"/>
<stop offset="0.519" stop-color="#F9C723" stop-opacity="0.583"/>
<stop offset="0.999" stop-color="#F9C621"/>
</linearGradient>
<linearGradient id="paint14_linear_1_100" x1="2.11596" y1="38.4221" x2="44.477" y2="38.4221" gradientUnits="userSpaceOnUse">
<stop stop-color="#EDAB14"/>
<stop offset="0.519" stop-color="#F7C321" stop-opacity="0.629"/>
<stop offset="0.999" stop-color="#F7C220"/>
</linearGradient>
<linearGradient id="paint15_linear_1_100" x1="1.85129" y1="38.5529" x2="44.4319" y2="38.5529" gradientUnits="userSpaceOnUse">
<stop stop-color="#ECAA14"/>
<stop offset="0.519" stop-color="#F5BF20" stop-opacity="0.675"/>
<stop offset="0.999" stop-color="#F5BE1F"/>
</linearGradient>
<linearGradient id="paint16_linear_1_100" x1="1.58664" y1="38.6863" x2="44.3869" y2="38.6863" gradientUnits="userSpaceOnUse">
<stop stop-color="#EBA814"/>
<stop offset="0.519" stop-color="#F3BA1E" stop-opacity="0.722"/>
<stop offset="0.999" stop-color="#F3BA1D"/>
</linearGradient>
<linearGradient id="paint17_linear_1_100" x1="1.32192" y1="38.8176" x2="44.3432" y2="38.8176" gradientUnits="userSpaceOnUse">
<stop stop-color="#EAA714"/>
<stop offset="0.519" stop-color="#F0B61D" stop-opacity="0.768"/>
<stop offset="0.999" stop-color="#F0B51C"/>
</linearGradient>
<linearGradient id="paint18_linear_1_100" x1="1.05869" y1="38.9505" x2="44.2981" y2="38.9505" gradientUnits="userSpaceOnUse">
<stop stop-color="#E9A514"/>
<stop offset="0.519" stop-color="#EEB11B" stop-opacity="0.815"/>
<stop offset="0.999" stop-color="#EEB11A"/>
</linearGradient>
<linearGradient id="paint19_linear_1_100" x1="0.794026" y1="39.0833" x2="44.253" y2="39.0833" gradientUnits="userSpaceOnUse">
<stop stop-color="#E8A414"/>
<stop offset="0.519" stop-color="#ECAD1A" stop-opacity="0.861"/>
<stop offset="0.999" stop-color="#ECAD19"/>
</linearGradient>
<linearGradient id="paint20_linear_1_100" x1="0.529318" y1="39.2167" x2="44.2094" y2="39.2167" gradientUnits="userSpaceOnUse">
<stop stop-color="#E7A315"/>
<stop offset="0.519" stop-color="#EAA918" stop-opacity="0.907"/>
<stop offset="0.999" stop-color="#EAA918"/>
</linearGradient>
<linearGradient id="paint21_linear_1_100" x1="0.264699" y1="39.3484" x2="44.1644" y2="39.3484" gradientUnits="userSpaceOnUse">
<stop stop-color="#E6A115"/>
<stop offset="0.519" stop-color="#E7A417" stop-opacity="0.954"/>
<stop offset="0.999" stop-color="#E7A416"/>
</linearGradient>
<radialGradient id="paint22_radial_1_100" cx="0" cy="0" r="1" gradientUnits="userSpaceOnUse" gradientTransform="translate(40.3397 53.3422) scale(9.62136 4.89439)">
<stop stop-color="#FFE16E"/>
<stop offset="0.629" stop-color="#FFD226"/>
<stop offset="0.75" stop-color="#FDCD23"/>
<stop offset="0.899" stop-color="#F6BD1B"/>
<stop offset="0.999" stop-color="#F0AF13"/>
</radialGradient>
<radialGradient id="paint23_radial_1_100" cx="0" cy="0" r="1" gradientUnits="userSpaceOnUse" gradientTransform="translate(42.6723 46.0838) scale(11.1178 5.87687)">
<stop stop-color="#FFE16E"/>
<stop offset="0.629" stop-color="#FFD226"/>
<stop offset="0.75" stop-color="#FDCD23"/>
<stop offset="0.899" stop-color="#F6BD1B"/>
<stop offset="0.999" stop-color="#F0AF13"/>
</radialGradient>
<radialGradient id="paint24_radial_1_100" cx="0" cy="0" r="1" gradientUnits="userSpaceOnUse" gradientTransform="translate(44.0596 38.2832) scale(12.0427 6.7957)">
<stop stop-color="#FFE16E"/>
<stop offset="0.629" stop-color="#FFD226"/>
<stop offset="0.75" stop-color="#FDCD23"/>
<stop offset="0.899" stop-color="#F6BD1B"/>
<stop offset="0.999" stop-color="#F0AF13"/>
</radialGradient>
<radialGradient id="paint25_radial_1_100" cx="0" cy="0" r="1" gradientUnits="userSpaceOnUse" gradientTransform="translate(45.3093 27.0202) rotate(-4.7094) scale(10.6202 6.93413)">
<stop stop-color="#FFE16E"/>
<stop offset="0.629" stop-color="#FFD226"/>
<stop offset="0.75" stop-color="#FDCD23"/>
<stop offset="0.899" stop-color="#F6BD1B"/>
<stop offset="0.999" stop-color="#F0AF13"/>
</radialGradient>
<radialGradient id="paint26_radial_1_100" cx="0" cy="0" r="1" gradientUnits="userSpaceOnUse" gradientTransform="translate(19.4951 44.3489) rotate(-78.5677) scale(6.18342 9.36918)">
<stop offset="0.425" stop-color="#FFE16E"/>
<stop offset="1" stop-color="#FFE16E" stop-opacity="0"/>
</radialGradient>
<linearGradient id="paint27_linear_1_100" x1="33.865" y1="20.245" x2="19.2713" y2="36.0936" gradientUnits="userSpaceOnUse">
<stop stop-color="#FFDB53" stop-opacity="0"/>
<stop offset="0.605" stop-color="#F6C02D"/>
<stop offset="0.999" stop-color="#F2B416" stop-opacity="0.636"/>
</linearGradient>
<radialGradient id="paint28_radial_1_100" cx="0" cy="0" r="1" gradientUnits="userSpaceOnUse" gradientTransform="translate(18.3344 28.1617) rotate(49.6414) scale(5.55962 9.22413)">
<stop offset="0.425" stop-color="#FFE16E"/>
<stop offset="1" stop-color="#FFE16E" stop-opacity="0"/>
</radialGradient>
<radialGradient id="paint29_radial_1_100" cx="0" cy="0" r="1" gradientUnits="userSpaceOnUse" gradientTransform="translate(45.8407 26.9076) rotate(-90) scale(3.36995 7.57811)">
<stop offset="0.425" stop-color="#FFE16E"/>
<stop offset="1" stop-color="#FFE16E" stop-opacity="0"/>
</radialGradient>
<radialGradient id="paint30_radial_1_100" cx="0" cy="0" r="1" gradientUnits="userSpaceOnUse" gradientTransform="translate(44.4501 36.9044) rotate(-90) scale(2.95328 7.57811)">
<stop offset="0.425" stop-color="#FFE16E"/>
<stop offset="1" stop-color="#FFE16E" stop-opacity="0"/>
</radialGradient>
<radialGradient id="paint31_radial_1_100" cx="0" cy="0" r="1" gradientUnits="userSpaceOnUse" gradientTransform="translate(42.9195 45.3981) rotate(-90) scale(2.95328 7.57811)">
<stop offset="0.425" stop-color="#FFE16E"/>
<stop offset="1" stop-color="#FFE16E" stop-opacity="0"/>
</radialGradient>
<radialGradient id="paint32_radial_1_100" cx="0" cy="0" r="1" gradientUnits="userSpaceOnUse" gradientTransform="translate(40.9879 52.5415) rotate(-90) scale(2.11615 5.43004)">
<stop offset="0.425" stop-color="#FFE16E"/>
<stop offset="1" stop-color="#FFE16E" stop-opacity="0"/>
</radialGradient>
<clipPath id="clip0_1_100">
<rect width="56" height="56" fill="white"/>
</clipPath>
</defs>
</svg>
